<svg xmlns:inkscape="http://www.inkscape.org/namespaces/inkscape" xmlns:sodipodi="http://sodipodi.sourceforge.net/DTD/sodipodi-0.dtd" xmlns="http://www.w3.org/2000/svg" xmlns:xlink="http://www.w3.org/1999/xlink" xmlns:svg="http://www.w3.org/2000/svg" width="600" height="800" viewBox="0 0 158.75 211.66667" version="1.1" id="svg5" sodipodi:docname="template.svg">
  <sodipodi:namedview id="namedview7" pagecolor="#ffffff" bordercolor="#000000" borderopacity="0.25"/>
  <defs id="defs2"/>
  <g id="layer1">
    <rect width="100%" height="100%" fill="white"/>

    <text xml:space="preserve" style="font-style:normal;font-variant:normal;font-weight:bold;font-stretch:normal;font-size:12px;line-height:0;font-family: monospace;text-align:center;text-anchor:left;fill:#000000;fill-opacity:1;stroke:none;stroke-width:8.97391;stroke-linecap:round;stroke-linejoin:bevel;stroke-dashoffset:0.0755906;paint-order:stroke markers fill" id="weekday" x="12" y="12">Sunday</text>
   <text xml:space="preserve" style="font-style:normal;font-variant:normal;font-weight:bold;font-stretch:normal;font-size:12px;line-height:0;font-family: monospace;text-align:center;text-anchor:left;fill:#000000;fill-opacity:1;stroke:none;stroke-width:8.97391;stroke-linecap:round;stroke-linejoin:bevel;stroke-dashoffset:0.0755906;paint-order:stroke markers fill" id="date" x="12" y="25">May 04</text>

   <text xml:space="preserve" style="font-style:normal;font-variant:normal;font-weight:bold;font-stretch:normal;font-size:12px;line-height:0;font-family: monospace;text-align:center;text-anchor:left;fill:#000000;fill-opacity:1;stroke:none;stroke-width:8.97391;stroke-linecap:round;stroke-linejoin:bevel;stroke-dashoffset:0.0755906;paint-order:stroke markers fill" id="currtemp" x="115" y="20">68&#176;</text>

   <text xml:space="preserve" id="low" style="font-style:normal;font-variant:normal;font-weight:bold;font-stretch:normal;font-size:12px;line-height:0;font-family:monospace;text-align:center;text-anchor:left;fill:#000000;fill-opacity:1;stroke:none;stroke-width:8.97391;stroke-linecap:round;stroke-linejoin:bevel;stroke-dashoffset:0.0755906;paint-order:stroke markers fill" x="10" y="50">Low:
   </text>
   <text xml:space="preserve" style="font-style:normal;font-variant:normal;font-weight:bold;font-stretch:normal;font-size:12px;line-height:0;font-family:monospace;text-align:center;text-anchor:left;fill:#000000;fill-opacity:1;stroke:none;stroke-width:8.97391;stroke-linecap:round;stroke-linejoin:bevel;stroke-dashoffset:0.0755906;paint-order:stroke markers fill" id="lowtemp" x="39" y="50">62&#176;</text>

    <text xml:space="preserve" id="high" style="font-style:normal;font-variant:normal;font-weight:bold;font-stretch:normal;font-size:12px;line-height:0;font-family:monospace;fill:#000000;;text-align:center;text-anchor:left;fill:#000000;fill-opacity:1;stroke:none;stroke-width:8.97391;stroke-linecap:round;stroke-linejoin:bevel;stroke-dashoffset:0.0755906;paint-order:stroke markers fill" x="80" y="50">High:</text>

    <text xml:space="preserve" style="font-style:normal;font-variant:normal;font-weight:bold;font-stretch:normal;font-size:12px;line-height:0;font-family:monospace;text-align:center;text-anchor:left;fill:#000000;fill-opacity:1;stroke:none;stroke-width:8.97391;stroke-linecap:round;stroke-linejoin:bevel;stroke-dashoffset:0.0755906;paint-order:stroke markers fill" id="hightemp" x="115" y="50">71&#176;</text>
   
   <!-- Hourly forecast-->

   <text xml:space="preserve" style="font-style:normal;font-variant:normal;font-weight:bold;font-stretch:normal;font-size:9px;line-height:0;font-family:monospace;text-align:center;text-anchor:center;fill:#000000;fill-opacity:1;stroke:none;stroke-width:8.97391;stroke-linecap:round;stroke-linejoin:bevel;stroke-dashoffset:0.0755906;paint-order:stroke markers fill" id="time0" x="7" y="72">4PM</text>
   
   <text xml:space="preserve" style="font-style:normal;font-variant:normal;font-weight:bold;font-stretch:normal;font-size:9px;line-height:0;font-family:monospace;text-align:center;text-anchor:center;fill:#000000;fill-opacity:1;stroke:none;stroke-width:8.97391;stroke-linecap:round;stroke-linejoin:bevel;stroke-dashoffset:0.0755906;paint-order:stroke markers fill" id="time1" x="32" y="72">5PM</text>
   
   <text xml:space="preserve" style="font-style:normal;font-variant:normal;font-weight:bold;font-stretch:normal;font-size:9px;line-height:0;font-family:monospace;text-align:center;text-anchor:center;fill:#000000;fill-opacity:1;stroke:none;stroke-width:8.97391;stroke-linecap:round;stroke-linejoin:bevel;stroke-dashoffset:0.0755906;paint-order:stroke markers fill" id="time2" x="57" y="72">6PM</text>

   <text xml:space="preserve" style="font-style:normal;font-variant:normal;font-weight:bold;font-stretch:normal;font-size:9px;line-height:0;font-family:monospace;text-align:center;text-anchor:center;fill:#000000;fill-opacity:1;stroke:none;stroke-width:8.97391;stroke-linecap:round;stroke-linejoin:bevel;stroke-dashoffset:0.0755906;paint-order:stroke markers fill" id="time3" x="82" y="72">7PM</text>
   
   <text xml:space="preserve" style="font-style:normal;font-variant:normal;font-weight:bold;font-stretch:normal;font-size:9px;line-height:0;font-family:monospace;text-align:center;text-anchor:center;fill:#000000;fill-opacity:1;stroke:none;stroke-width:8.97391;stroke-linecap:round;stroke-linejoin:bevel;stroke-dashoffset:0.0755906;paint-order:stroke markers fill" id="time4" x="107" y="72">8PM</text>
   
   <text xml:space="preserve" style="font-style:normal;font-variant:normal;font-weight:bold;font-stretch:normal;font-size:9px;line-height:0;font-family:monospace;text-align:center;text-anchor:center;fill:#000000;fill-opacity:1;stroke:none;stroke-width:8.97391;stroke-linecap:round;stroke-linejoin:bevel;stroke-dashoffset:0.0755906;paint-order:stroke markers fill" id="time5" x="132" y="72">9PM</text>

   <text xml:space="preserve" style="font-style:normal;font-variant:normal;font-weight:bold;font-stretch:normal;font-size:10px;line-height:0;font-family:monospace;text-align:center;text-anchor:center;fill:#000000;fill-opacity:1;stroke:none;stroke-width:8.97391;stroke-linecap:round;stroke-linejoin:bevel;stroke-dashoffset:0.0755906;paint-order:stroke markers fill" id="text0" x="9" y="115">71&#176;</text>
   
   <text xml:space="preserve" style="font-style:normal;font-variant:normal;font-weight:bold;font-stretch:normal;font-size:10px;line-height:0;font-family:monospace;text-align:center;text-anchor:center;fill:#000000;fill-opacity:1;stroke:none;stroke-width:8.97391;stroke-linecap:round;stroke-linejoin:bevel;stroke-dashoffset:0.0755906;paint-order:stroke markers fill" id="text1" x="34" y="115">71&#176;</text>

   <text xml:space="preserve" style="font-style:normal;font-variant:normal;font-weight:bold;font-stretch:normal;font-size:10px;line-height:0;font-family:monospace;text-align:center;text-anchor:center;fill:#000000;fill-opacity:1;stroke:none;stroke-width:8.97391;stroke-linecap:round;stroke-linejoin:bevel;stroke-dashoffset:0.0755906;paint-order:stroke markers fill" id="text2" x="59" y="115">70&#176;</text>
   
   <text xml:space="preserve" style="font-style:normal;font-variant:normal;font-weight:bold;font-stretch:normal;font-size:10px;line-height:0;font-family:monospace;text-align:center;text-anchor:center;fill:#000000;fill-opacity:1;stroke:none;stroke-width:8.97391;stroke-linecap:round;stroke-linejoin:bevel;stroke-dashoffset:0.0755906;paint-order:stroke markers fill" id="text3" x="84" y="115">69&#176;</text>
   
   <text xml:space="preserve" style="font-style:normal;font-variant:normal;font-weight:bold;font-stretch:normal;font-size:10px;line-height:0;font-family:monospace;text-align:center;text-anchor:center;fill:#000000;fill-opacity:1;stroke:none;stroke-width:8.97391;stroke-linecap:round;stroke-linejoin:bevel;stroke-dashoffset:0.0755906;paint-order:stroke markers fill" id="text4" x="109" y="115">66&#176;</text>
   
   <text xml:space="preserve" style="font-style:normal;font-variant:normal;font-weight:bold;font-stretch:normal;font-size:10px;line-height:0;font-family:monospace;text-align:center;text-anchor:center;fill:#000000;fill-opacity:1;stroke:none;stroke-width:8.97391;stroke-linecap:round;stroke-linejoin:bevel;stroke-dashoffset:0.0755906;paint-order:stroke markers fill" id="text5" x="134" y="115">64&#176;</text>
  <svg version="1.1" id="Layer_1" x="80" y="2">
<path d="M3.89,17.6c0-0.99,0.31-1.88,0.93-2.65s1.41-1.27,2.38-1.49c0.26-1.17,0.85-2.14,1.78-2.88c0.93-0.75,2-1.12,3.22-1.12  c1.18,0,2.24,0.36,3.16,1.09c0.93,0.73,1.53,1.66,1.8,2.8h0.27c1.18,0,2.18,0.41,3.01,1.24s1.25,1.83,1.25,3  c0,1.18-0.42,2.18-1.25,3.01s-1.83,1.25-3.01,1.25H8.16c-0.58,0-1.13-0.11-1.65-0.34S5.52,21,5.14,20.62  c-0.38-0.38-0.68-0.84-0.91-1.36S3.89,18.17,3.89,17.6z M5.34,17.6c0,0.76,0.28,1.42,0.82,1.96s1.21,0.82,1.99,0.82h9.28  c0.77,0,1.44-0.27,1.99-0.82c0.55-0.55,0.83-1.2,0.83-1.96c0-0.76-0.27-1.42-0.83-1.96c-0.55-0.54-1.21-0.82-1.99-0.82h-1.39  c-0.1,0-0.15-0.05-0.15-0.15l-0.07-0.49c-0.1-0.94-0.5-1.73-1.19-2.35s-1.51-0.93-2.45-0.93c-0.94,0-1.76,0.31-2.46,0.94  c-0.7,0.62-1.09,1.41-1.18,2.34l-0.07,0.42c0,0.1-0.05,0.15-0.16,0.15l-0.45,0.07c-0.72,0.06-1.32,0.36-1.81,0.89  C5.59,16.24,5.34,16.87,5.34,17.6z M14.19,8.88c-0.1,0.09-0.08,0.16,0.07,0.21c0.43,0.19,0.79,0.37,1.08,0.55  c0.11,0.03,0.19,0.02,0.22-0.03c0.61-0.57,1.31-0.86,2.12-0.86c0.81,0,1.5,0.27,2.1,0.81c0.59,0.54,0.92,1.21,0.99,2l0.09,0.64h1.42  c0.65,0,1.21,0.23,1.68,0.7c0.47,0.47,0.7,1.02,0.7,1.66c0,0.6-0.21,1.12-0.62,1.57s-0.92,0.7-1.53,0.77c-0.1,0-0.15,0.05-0.15,0.16  v1.13c0,0.11,0.05,0.16,0.15,0.16c1.01-0.06,1.86-0.46,2.55-1.19s1.04-1.6,1.04-2.6c0-1.06-0.37-1.96-1.12-2.7  c-0.75-0.75-1.65-1.12-2.7-1.12h-0.15c-0.26-1-0.81-1.82-1.65-2.47c-0.83-0.65-1.77-0.97-2.8-0.97C16.28,7.29,15.11,7.82,14.19,8.88  z"/>
</svg><svg version="1.1" id="icon0" x="0" y="76">
<path d="M3.89,17.6c0-0.99,0.31-1.88,0.93-2.65s1.41-1.27,2.38-1.49c0.26-1.17,0.85-2.14,1.78-2.88c0.93-0.75,2-1.12,3.22-1.12  c1.18,0,2.24,0.36,3.16,1.09c0.93,0.73,1.53,1.66,1.8,2.8h0.27c1.18,0,2.18,0.41,3.01,1.24s1.25,1.83,1.25,3  c0,1.18-0.42,2.18-1.25,3.01s-1.83,1.25-3.01,1.25H8.16c-0.58,0-1.13-0.11-1.65-0.34S5.52,21,5.14,20.62  c-0.38-0.38-0.68-0.84-0.91-1.36S3.89,18.17,3.89,17.6z M5.34,17.6c0,0.76,0.28,1.42,0.82,1.96s1.21,0.82,1.99,0.82h9.28  c0.77,0,1.44-0.27,1.99-0.82c0.55-0.55,0.83-1.2,0.83-1.96c0-0.76-0.27-1.42-0.83-1.96c-0.55-0.54-1.21-0.82-1.99-0.82h-1.39  c-0.1,0-0.15-0.05-0.15-0.15l-0.07-0.49c-0.1-0.94-0.5-1.73-1.19-2.35s-1.51-0.93-2.45-0.93c-0.94,0-1.76,0.31-2.46,0.94  c-0.7,0.62-1.09,1.41-1.18,2.34l-0.07,0.42c0,0.1-0.05,0.15-0.16,0.15l-0.45,0.07c-0.72,0.06-1.32,0.36-1.81,0.89  C5.59,16.24,5.34,16.87,5.34,17.6z M14.19,8.88c-0.1,0.09-0.08,0.16,0.07,0.21c0.43,0.19,0.79,0.37,1.08,0.55  c0.11,0.03,0.19,0.02,0.22-0.03c0.61-0.57,1.31-0.86,2.12-0.86c0.81,0,1.5,0.27,2.1,0.81c0.59,0.54,0.92,1.21,0.99,2l0.09,0.64h1.42  c0.65,0,1.21,0.23,1.68,0.7c0.47,0.47,0.7,1.02,0.7,1.66c0,0.6-0.21,1.12-0.62,1.57s-0.92,0.7-1.53,0.77c-0.1,0-0.15,0.05-0.15,0.16  v1.13c0,0.11,0.05,0.16,0.15,0.16c1.01-0.06,1.86-0.46,2.55-1.19s1.04-1.6,1.04-2.6c0-1.06-0.37-1.96-1.12-2.7  c-0.75-0.75-1.65-1.12-2.7-1.12h-0.15c-0.26-1-0.81-1.82-1.65-2.47c-0.83-0.65-1.77-0.97-2.8-0.97C16.28,7.29,15.11,7.82,14.19,8.88  z"/>
</svg><svg version="1.1" id="icon1" x="25" y="76">
<path d="M3.89,17.6c0-0.99,0.31-1.88,0.93-2.65s1.41-1.27,2.38-1.49c0.26-1.17,0.85-2.14,1.78-2.88c0.93-0.75,2-1.12,3.22-1.12  c1.18,0,2.24,0.36,3.16,1.09c0.93,0.73,1.53,1.66,1.8,2.8h0.27c1.18,0,2.18,0.41,3.01,1.24s1.25,1.83,1.25,3  c0,1.18-0.42,2.18-1.25,3.01s-1.83,1.25-3.01,1.25H8.16c-0.58,0-1.13-0.11-1.65-0.34S5.52,21,5.14,20.62  c-0.38-0.38-0.68-0.84-0.91-1.36S3.89,18.17,3.89,17.6z M5.34,17.6c0,0.76,0.28,1.42,0.82,1.96s1.21,0.82,1.99,0.82h9.28  c0.77,0,1.44-0.27,1.99-0.82c0.55-0.55,0.83-1.2,0.83-1.96c0-0.76-0.27-1.42-0.83-1.96c-0.55-0.54-1.21-0.82-1.99-0.82h-1.39  c-0.1,0-0.15-0.05-0.15-0.15l-0.07-0.49c-0.1-0.94-0.5-1.73-1.19-2.35s-1.51-0.93-2.45-0.93c-0.94,0-1.76,0.31-2.46,0.94  c-0.7,0.62-1.09,1.41-1.18,2.34l-0.07,0.42c0,0.1-0.05,0.15-0.16,0.15l-0.45,0.07c-0.72,0.06-1.32,0.36-1.81,0.89  C5.59,16.24,5.34,16.87,5.34,17.6z M14.19,8.88c-0.1,0.09-0.08,0.16,0.07,0.21c0.43,0.19,0.79,0.37,1.08,0.55  c0.11,0.03,0.19,0.02,0.22-0.03c0.61-0.57,1.31-0.86,2.12-0.86c0.81,0,1.5,0.27,2.1,0.81c0.59,0.54,0.92,1.21,0.99,2l0.09,0.64h1.42  c0.65,0,1.21,0.23,1.68,0.7c0.47,0.47,0.7,1.02,0.7,1.66c0,0.6-0.21,1.12-0.62,1.57s-0.92,0.7-1.53,0.77c-0.1,0-0.15,0.05-0.15,0.16  v1.13c0,0.11,0.05,0.16,0.15,0.16c1.01-0.06,1.86-0.46,2.55-1.19s1.04-1.6,1.04-2.6c0-1.06-0.37-1.96-1.12-2.7  c-0.75-0.75-1.65-1.12-2.7-1.12h-0.15c-0.26-1-0.81-1.82-1.65-2.47c-0.83-0.65-1.77-0.97-2.8-0.97C16.28,7.29,15.11,7.82,14.19,8.88  z"/>
</svg><svg version="1.1" id="icon2" x="50" y="76">
<path d="M3.89,17.6c0-0.99,0.31-1.88,0.93-2.65s1.41-1.27,2.38-1.49c0.26-1.17,0.85-2.14,1.78-2.88c0.93-0.75,2-1.12,3.22-1.12  c1.18,0,2.24,0.36,3.16,1.09c0.93,0.73,1.53,1.66,1.8,2.8h0.27c1.18,0,2.18,0.41,3.01,1.24s1.25,1.83,1.25,3  c0,1.18-0.42,2.18-1.25,3.01s-1.83,1.25-3.01,1.25H8.16c-0.58,0-1.13-0.11-1.65-0.34S5.52,21,5.14,20.62  c-0.38-0.38-0.68-0.84-0.91-1.36S3.89,18.17,3.89,17.6z M5.34,17.6c0,0.76,0.28,1.42,0.82,1.96s1.21,0.82,1.99,0.82h9.28  c0.77,0,1.44-0.27,1.99-0.82c0.55-0.55,0.83-1.2,0.83-1.96c0-0.76-0.27-1.42-0.83-1.96c-0.55-0.54-1.21-0.82-1.99-0.82h-1.39  c-0.1,0-0.15-0.05-0.15-0.15l-0.07-0.49c-0.1-0.94-0.5-1.73-1.19-2.35s-1.51-0.93-2.45-0.93c-0.94,0-1.76,0.31-2.46,0.94  c-0.7,0.62-1.09,1.41-1.18,2.34l-0.07,0.42c0,0.1-0.05,0.15-0.16,0.15l-0.45,0.07c-0.72,0.06-1.32,0.36-1.81,0.89  C5.59,16.24,5.34,16.87,5.34,17.6z M14.19,8.88c-0.1,0.09-0.08,0.16,0.07,0.21c0.43,0.19,0.79,0.37,1.08,0.55  c0.11,0.03,0.19,0.02,0.22-0.03c0.61-0.57,1.31-0.86,2.12-0.86c0.81,0,1.5,0.27,2.1,0.81c0.59,0.54,0.92,1.21,0.99,2l0.09,0.64h1.42  c0.65,0,1.21,0.23,1.68,0.7c0.47,0.47,0.7,1.02,0.7,1.66c0,0.6-0.21,1.12-0.62,1.57s-0.92,0.7-1.53,0.77c-0.1,0-0.15,0.05-0.15,0.16  v1.13c0,0.11,0.05,0.16,0.15,0.16c1.01-0.06,1.86-0.46,2.55-1.19s1.04-1.6,1.04-2.6c0-1.06-0.37-1.96-1.12-2.7  c-0.75-0.75-1.65-1.12-2.7-1.12h-0.15c-0.26-1-0.81-1.82-1.65-2.47c-0.83-0.65-1.77-0.97-2.8-0.97C16.28,7.29,15.11,7.82,14.19,8.88  z"/>
</svg><svg version="1.1" id="icon3" x="75" y="76">
<path d="M3.89,17.6c0-0.99,0.31-1.88,0.93-2.65s1.41-1.27,2.38-1.49c0.26-1.17,0.85-2.14,1.78-2.88c0.93-0.75,2-1.12,3.22-1.12  c1.18,0,2.24,0.36,3.16,1.09c0.93,0.73,1.53,1.66,1.8,2.8h0.27c1.18,0,2.18,0.41,3.01,1.24s1.25,1.83,1.25,3  c0,1.18-0.42,2.18-1.25,3.01s-1.83,1.25-3.01,1.25H8.16c-0.58,0-1.13-0.11-1.65-0.34S5.52,21,5.14,20.62  c-0.38-0.38-0.68-0.84-0.91-1.36S3.89,18.17,3.89,17.6z M5.34,17.6c0,0.76,0.28,1.42,0.82,1.96s1.21,0.82,1.99,0.82h9.28  c0.77,0,1.44-0.27,1.99-0.82c0.55-0.55,0.83-1.2,0.83-1.96c0-0.76-0.27-1.42-0.83-1.96c-0.55-0.54-1.21-0.82-1.99-0.82h-1.39  c-0.1,0-0.15-0.05-0.15-0.15l-0.07-0.49c-0.1-0.94-0.5-1.73-1.19-2.35s-1.51-0.93-2.45-0.93c-0.94,0-1.76,0.31-2.46,0.94  c-0.7,0.62-1.09,1.41-1.18,2.34l-0.07,0.42c0,0.1-0.05,0.15-0.16,0.15l-0.45,0.07c-0.72,0.06-1.32,0.36-1.81,0.89  C5.59,16.24,5.34,16.87,5.34,17.6z M14.19,8.88c-0.1,0.09-0.08,0.16,0.07,0.21c0.43,0.19,0.79,0.37,1.08,0.55  c0.11,0.03,0.19,0.02,0.22-0.03c0.61-0.57,1.31-0.86,2.12-0.86c0.81,0,1.5,0.27,2.1,0.81c0.59,0.54,0.92,1.21,0.99,2l0.09,0.64h1.42  c0.65,0,1.21,0.23,1.68,0.7c0.47,0.47,0.7,1.02,0.7,1.66c0,0.6-0.21,1.12-0.62,1.57s-0.92,0.7-1.53,0.77c-0.1,0-0.15,0.05-0.15,0.16  v1.13c0,0.11,0.05,0.16,0.15,0.16c1.01-0.06,1.86-0.46,2.55-1.19s1.04-1.6,1.04-2.6c0-1.06-0.37-1.96-1.12-2.7  c-0.75-0.75-1.65-1.12-2.7-1.12h-0.15c-0.26-1-0.81-1.82-1.65-2.47c-0.83-0.65-1.77-0.97-2.8-0.97C16.28,7.29,15.11,7.82,14.19,8.88  z"/>
</svg><svg version="1.1" id="icon4" x="100" y="76">
<path d="M4.37,14.62c0-0.24,0.08-0.45,0.25-0.62c0.17-0.16,0.38-0.24,0.6-0.24h2.04c0.23,0,0.42,0.08,0.58,0.25  c0.15,0.17,0.23,0.37,0.23,0.61S8,15.06,7.85,15.23c-0.15,0.17-0.35,0.25-0.58,0.25H5.23c-0.23,0-0.43-0.08-0.6-0.25  C4.46,15.06,4.37,14.86,4.37,14.62z M7.23,21.55c0-0.23,0.08-0.43,0.23-0.61l1.47-1.43c0.15-0.16,0.35-0.23,0.59-0.23  c0.24,0,0.44,0.08,0.6,0.23s0.24,0.34,0.24,0.57c0,0.24-0.08,0.46-0.24,0.64L8.7,22.14c-0.41,0.32-0.82,0.32-1.23,0  C7.31,21.98,7.23,21.78,7.23,21.55z M7.23,7.71c0-0.23,0.08-0.43,0.23-0.61C7.66,6.93,7.87,6.85,8.1,6.85  c0.22,0,0.42,0.08,0.59,0.24l1.43,1.47c0.16,0.15,0.24,0.35,0.24,0.59c0,0.24-0.08,0.44-0.24,0.6s-0.36,0.24-0.6,0.24  c-0.24,0-0.44-0.08-0.59-0.24L7.47,8.32C7.31,8.16,7.23,7.95,7.23,7.71z M9.78,14.62c0-0.93,0.23-1.8,0.7-2.6s1.1-1.44,1.91-1.91  s1.67-0.7,2.6-0.7c0.7,0,1.37,0.14,2.02,0.42c0.64,0.28,1.2,0.65,1.66,1.12c0.47,0.47,0.84,1.02,1.11,1.66  c0.27,0.64,0.41,1.32,0.41,2.02c0,0.94-0.23,1.81-0.7,2.61c-0.47,0.8-1.1,1.43-1.9,1.9c-0.8,0.47-1.67,0.7-2.61,0.7  s-1.81-0.23-2.61-0.7c-0.8-0.47-1.43-1.1-1.9-1.9C10.02,16.43,9.78,15.56,9.78,14.62z M11.48,14.62c0,0.98,0.34,1.81,1.03,2.5  c0.68,0.69,1.51,1.04,2.49,1.04s1.81-0.35,2.5-1.04s1.04-1.52,1.04-2.5c0-0.96-0.35-1.78-1.04-2.47c-0.69-0.68-1.52-1.02-2.5-1.02  c-0.97,0-1.8,0.34-2.48,1.02C11.82,12.84,11.48,13.66,11.48,14.62z M14.14,22.4c0-0.24,0.08-0.44,0.25-0.6s0.37-0.24,0.6-0.24  c0.24,0,0.45,0.08,0.61,0.24s0.24,0.36,0.24,0.6v1.99c0,0.24-0.08,0.45-0.25,0.62c-0.17,0.17-0.37,0.25-0.6,0.25  s-0.44-0.08-0.6-0.25c-0.17-0.17-0.25-0.38-0.25-0.62V22.4z M14.14,6.9V4.86c0-0.23,0.08-0.43,0.25-0.6C14.56,4.09,14.76,4,15,4  s0.43,0.08,0.6,0.25c0.17,0.17,0.25,0.37,0.25,0.6V6.9c0,0.23-0.08,0.42-0.25,0.58S15.23,7.71,15,7.71s-0.44-0.08-0.6-0.23  S14.14,7.13,14.14,6.9z M19.66,20.08c0-0.23,0.08-0.42,0.23-0.56c0.15-0.16,0.34-0.23,0.56-0.23c0.24,0,0.44,0.08,0.6,0.23  l1.46,1.43c0.16,0.17,0.24,0.38,0.24,0.61c0,0.23-0.08,0.43-0.24,0.59c-0.4,0.31-0.8,0.31-1.2,0l-1.42-1.42  C19.74,20.55,19.66,20.34,19.66,20.08z M19.66,9.16c0-0.25,0.08-0.45,0.23-0.59l1.42-1.47c0.17-0.16,0.37-0.24,0.59-0.24  c0.24,0,0.44,0.08,0.6,0.25c0.17,0.17,0.25,0.37,0.25,0.6c0,0.25-0.08,0.46-0.24,0.62l-1.46,1.43c-0.18,0.16-0.38,0.24-0.6,0.24  c-0.23,0-0.41-0.08-0.56-0.24S19.66,9.4,19.66,9.16z M21.92,14.62c0-0.24,0.08-0.44,0.24-0.62c0.16-0.16,0.35-0.24,0.57-0.24h2.02  c0.23,0,0.43,0.09,0.6,0.26c0.17,0.17,0.26,0.37,0.26,0.6s-0.09,0.43-0.26,0.6c-0.17,0.17-0.37,0.25-0.6,0.25h-2.02  c-0.23,0-0.43-0.08-0.58-0.25S21.92,14.86,21.92,14.62z"/>
</svg><svg version="1.1" id="icon5" x="125" y="76">
<path d="M4.37,14.62c0-0.24,0.08-0.45,0.25-0.62c0.17-0.16,0.38-0.24,0.6-0.24h2.04c0.23,0,0.42,0.08,0.58,0.25  c0.15,0.17,0.23,0.37,0.23,0.61S8,15.06,7.85,15.23c-0.15,0.17-0.35,0.25-0.58,0.25H5.23c-0.23,0-0.43-0.08-0.6-0.25  C4.46,15.06,4.37,14.86,4.37,14.62z M7.23,21.55c0-0.23,0.08-0.43,0.23-0.61l1.47-1.43c0.15-0.16,0.35-0.23,0.59-0.23  c0.24,0,0.44,0.08,0.6,0.23s0.24,0.34,0.24,0.57c0,0.24-0.08,0.46-0.24,0.64L8.7,22.14c-0.41,0.32-0.82,0.32-1.23,0  C7.31,21.98,7.23,21.78,7.23,21.55z M7.23,7.71c0-0.23,0.08-0.43,0.23-0.61C7.66,6.93,7.87,6.85,8.1,6.85  c0.22,0,0.42,0.08,0.59,0.24l1.43,1.47c0.16,0.15,0.24,0.35,0.24,0.59c0,0.24-0.08,0.44-0.24,0.6s-0.36,0.24-0.6,0.24  c-0.24,0-0.44-0.08-0.59-0.24L7.47,8.32C7.31,8.16,7.23,7.95,7.23,7.71z M9.78,14.62c0-0.93,0.23-1.8,0.7-2.6s1.1-1.44,1.91-1.91  s1.67-0.7,2.6-0.7c0.7,0,1.37,0.14,2.02,0.42c0.64,0.28,1.2,0.65,1.66,1.12c0.47,0.47,0.84,1.02,1.11,1.66  c0.27,0.64,0.41,1.32,0.41,2.02c0,0.94-0.23,1.81-0.7,2.61c-0.47,0.8-1.1,1.43-1.9,1.9c-0.8,0.47-1.67,0.7-2.61,0.7  s-1.81-0.23-2.61-0.7c-0.8-0.47-1.43-1.1-1.9-1.9C10.02,16.43,9.78,15.56,9.78,14.62z M11.48,14.62c0,0.98,0.34,1.81,1.03,2.5  c0.68,0.69,1.51,1.04,2.49,1.04s1.81-0.35,2.5-1.04s1.04-1.52,1.04-2.5c0-0.96-0.35-1.78-1.04-2.47c-0.69-0.68-1.52-1.02-2.5-1.02  c-0.97,0-1.8,0.34-2.48,1.02C11.82,12.84,11.48,13.66,11.48,14.62z M14.14,22.4c0-0.24,0.08-0.44,0.25-0.6s0.37-0.24,0.6-0.24  c0.24,0,0.45,0.08,0.61,0.24s0.24,0.36,0.24,0.6v1.99c0,0.24-0.08,0.45-0.25,0.62c-0.17,0.17-0.37,0.25-0.6,0.25  s-0.44-0.08-0.6-0.25c-0.17-0.17-0.25-0.38-0.25-0.62V22.4z M14.14,6.9V4.86c0-0.23,0.08-0.43,0.25-0.6C14.56,4.09,14.76,4,15,4  s0.43,0.08,0.6,0.25c0.17,0.17,0.25,0.37,0.25,0.6V6.9c0,0.23-0.08,0.42-0.25,0.58S15.23,7.71,15,7.71s-0.44-0.08-0.6-0.23  S14.14,7.13,14.14,6.9z M19.66,20.08c0-0.23,0.08-0.42,0.23-0.56c0.15-0.16,0.34-0.23,0.56-0.23c0.24,0,0.44,0.08,0.6,0.23  l1.46,1.43c0.16,0.17,0.24,0.38,0.24,0.61c0,0.23-0.08,0.43-0.24,0.59c-0.4,0.31-0.8,0.31-1.2,0l-1.42-1.42  C19.74,20.55,19.66,20.34,19.66,20.08z M19.66,9.16c0-0.25,0.08-0.45,0.23-0.59l1.42-1.47c0.17-0.16,0.37-0.24,0.59-0.24  c0.24,0,0.44,0.08,0.6,0.25c0.17,0.17,0.25,0.37,0.25,0.6c0,0.25-0.08,0.46-0.24,0.62l-1.46,1.43c-0.18,0.16-0.38,0.24-0.6,0.24  c-0.23,0-0.41-0.08-0.56-0.24S19.66,9.4,19.66,9.16z M21.92,14.62c0-0.24,0.08-0.44,0.24-0.62c0.16-0.16,0.35-0.24,0.57-0.24h2.02  c0.23,0,0.43,0.09,0.6,0.26c0.17,0.17,0.26,0.37,0.26,0.6s-0.09,0.43-0.26,0.6c-0.17,0.17-0.37,0.25-0.6,0.25h-2.02  c-0.23,0-0.43-0.08-0.58-0.25S21.92,14.86,21.92,14.62z"/>
</svg></g>
</svg>