<svg xmlns:inkscape="http://www.inkscape.org/namespaces/inkscape" xmlns:sodipodi="http://sodipodi.sourceforge.net/DTD/sodipodi-0.dtd" xmlns="http://www.w3.org/2000/svg" xmlns:xlink="http://www.w3.org/1999/xlink" xmlns:svg="http://www.w3.org/2000/svg" width="600" height="800" viewBox="0 0 158.75 211.66667" version="1.1" id="svg5" sodipodi:docname="template.svg">
  <sodipodi:namedview id="namedview7" pagecolor="#ffffff" bordercolor="#000000" borderopacity="0.25"/>
  <defs id="defs2"/>
  <g id="layer1">
    <rect width="100%" height="100%" fill="white"/>


   <text xml:space="preserve" style="font-style:normal;font-variant:normal;font-weight:bold;font-stretch:normal;font-size:12px;line-height:0;font-family: monospace;text-align:center;text-anchor:left;fill:#000000;fill-opacity:1;stroke:none;stroke-width:8.97391;stroke-linecap:round;stroke-linejoin:bevel;stroke-dashoffset:0.0755906;paint-order:stroke markers fill" id="currtemp" x="10" y="20">77&#176;</text>

   <!-- <image x="30" y="6" width="20" xlink:href="icons/0.svg" id="curricon" /> -->

   <text xml:space="preserve" id="high" style="font-style:normal;font-variant:normal;font-weight:bold;font-stretch:normal;font-size:12px;line-height:0;font-family:monospace;text-align:center;text-anchor:left;fill:#000000;fill-opacity:1;stroke:none;stroke-width:8.97391;stroke-linecap:round;stroke-linejoin:bevel;stroke-dashoffset:0.0755906;paint-order:stroke markers fill" x="10" y="45">High:
   </text>
   <text xml:space="preserve" style="font-style:normal;font-variant:normal;font-weight:bold;font-stretch:normal;font-size:12px;line-height:0;font-family:monospace;text-align:center;text-anchor:left;fill:#000000;fill-opacity:1;stroke:none;stroke-width:8.97391;stroke-linecap:round;stroke-linejoin:bevel;stroke-dashoffset:0.0755906;paint-order:stroke markers fill" id="hightemp" x="44" y="45">78&#176;</text>

    <text xml:space="preserve" id="low" style="font-style:normal;font-variant:normal;font-weight:bold;font-stretch:normal;font-size:12px;line-height:0;font-family:monospace;fill:#000000;;text-align:center;text-anchor:left;fill:#000000;fill-opacity:1;stroke:none;stroke-width:8.97391;stroke-linecap:round;stroke-linejoin:bevel;stroke-dashoffset:0.0755906;paint-order:stroke markers fill" x="80" y="45">Low:</text>

    <text xml:space="preserve" style="font-style:normal;font-variant:normal;font-weight:bold;font-stretch:normal;font-size:12px;line-height:0;font-family:monospace;text-align:center;text-anchor:left;fill:#000000;fill-opacity:1;stroke:none;stroke-width:8.97391;stroke-linecap:round;stroke-linejoin:bevel;stroke-dashoffset:0.0755906;paint-order:stroke markers fill" id="lowtemp" x="108" y="45">61&#176;</text>
   
   <!-- Hourly forecast-->

   <text xml:space="preserve" style="font-style:normal;font-variant:normal;font-weight:bold;font-stretch:normal;font-size:9px;line-height:0;font-family:monospace;text-align:center;text-anchor:center;fill:#000000;fill-opacity:1;stroke:none;stroke-width:8.97391;stroke-linecap:round;stroke-linejoin:bevel;stroke-dashoffset:0.0755906;paint-order:stroke markers fill" id="time0" x="7" y="67">4PM</text>
   
   <text xml:space="preserve" style="font-style:normal;font-variant:normal;font-weight:bold;font-stretch:normal;font-size:9px;line-height:0;font-family:monospace;text-align:center;text-anchor:center;fill:#000000;fill-opacity:1;stroke:none;stroke-width:8.97391;stroke-linecap:round;stroke-linejoin:bevel;stroke-dashoffset:0.0755906;paint-order:stroke markers fill" id="time1" x="32" y="67">5PM</text>
   
   <text xml:space="preserve" style="font-style:normal;font-variant:normal;font-weight:bold;font-stretch:normal;font-size:9px;line-height:0;font-family:monospace;text-align:center;text-anchor:center;fill:#000000;fill-opacity:1;stroke:none;stroke-width:8.97391;stroke-linecap:round;stroke-linejoin:bevel;stroke-dashoffset:0.0755906;paint-order:stroke markers fill" id="time2" x="57" y="67">6PM</text>

   <text xml:space="preserve" style="font-style:normal;font-variant:normal;font-weight:bold;font-stretch:normal;font-size:9px;line-height:0;font-family:monospace;text-align:center;text-anchor:center;fill:#000000;fill-opacity:1;stroke:none;stroke-width:8.97391;stroke-linecap:round;stroke-linejoin:bevel;stroke-dashoffset:0.0755906;paint-order:stroke markers fill" id="time3" x="82" y="67">7PM</text>
   
   <text xml:space="preserve" style="font-style:normal;font-variant:normal;font-weight:bold;font-stretch:normal;font-size:9px;line-height:0;font-family:monospace;text-align:center;text-anchor:center;fill:#000000;fill-opacity:1;stroke:none;stroke-width:8.97391;stroke-linecap:round;stroke-linejoin:bevel;stroke-dashoffset:0.0755906;paint-order:stroke markers fill" id="time4" x="107" y="67">8PM</text>
   
   <text xml:space="preserve" style="font-style:normal;font-variant:normal;font-weight:bold;font-stretch:normal;font-size:9px;line-height:0;font-family:monospace;text-align:center;text-anchor:center;fill:#000000;fill-opacity:1;stroke:none;stroke-width:8.97391;stroke-linecap:round;stroke-linejoin:bevel;stroke-dashoffset:0.0755906;paint-order:stroke markers fill" id="time5" x="132" y="67">9PM</text>

   <!-- <image x="5" y="70" width="20" xlink:href="icons/0.svg" id="icon0" />
   <image x="30" y="70" width="20" xlink:href="icons/0.svg" id="icon1" />
   <image x="55" y="70" width="20" xlink:href="icons/0.svg" id="icon2" />
   <image x="80" y="70" width="20" xlink:href="icons/0.svg" id="icon3" />
   <image x="105" y="70" width="20" xlink:href="icons/0.svg" id="icon4" />
   <image x="130" y="70" width="20" xlink:href="icons/0.svg" id="icon5" /> -->

   <text xml:space="preserve" style="font-style:normal;font-variant:normal;font-weight:bold;font-stretch:normal;font-size:10px;line-height:0;font-family:monospace;text-align:center;text-anchor:center;fill:#000000;fill-opacity:1;stroke:none;stroke-width:8.97391;stroke-linecap:round;stroke-linejoin:bevel;stroke-dashoffset:0.0755906;paint-order:stroke markers fill" id="text0" x="9" y="110">78&#176;</text>
   
   <text xml:space="preserve" style="font-style:normal;font-variant:normal;font-weight:bold;font-stretch:normal;font-size:10px;line-height:0;font-family:monospace;text-align:center;text-anchor:center;fill:#000000;fill-opacity:1;stroke:none;stroke-width:8.97391;stroke-linecap:round;stroke-linejoin:bevel;stroke-dashoffset:0.0755906;paint-order:stroke markers fill" id="text1" x="34" y="110">77&#176;</text>

   <text xml:space="preserve" style="font-style:normal;font-variant:normal;font-weight:bold;font-stretch:normal;font-size:10px;line-height:0;font-family:monospace;text-align:center;text-anchor:center;fill:#000000;fill-opacity:1;stroke:none;stroke-width:8.97391;stroke-linecap:round;stroke-linejoin:bevel;stroke-dashoffset:0.0755906;paint-order:stroke markers fill" id="text2" x="59" y="110">78&#176;</text>
   
   <text xml:space="preserve" style="font-style:normal;font-variant:normal;font-weight:bold;font-stretch:normal;font-size:10px;line-height:0;font-family:monospace;text-align:center;text-anchor:center;fill:#000000;fill-opacity:1;stroke:none;stroke-width:8.97391;stroke-linecap:round;stroke-linejoin:bevel;stroke-dashoffset:0.0755906;paint-order:stroke markers fill" id="text3" x="84" y="110">77&#176;</text>
   
   <text xml:space="preserve" style="font-style:normal;font-variant:normal;font-weight:bold;font-stretch:normal;font-size:10px;line-height:0;font-family:monospace;text-align:center;text-anchor:center;fill:#000000;fill-opacity:1;stroke:none;stroke-width:8.97391;stroke-linecap:round;stroke-linejoin:bevel;stroke-dashoffset:0.0755906;paint-order:stroke markers fill" id="text4" x="109" y="110">74&#176;</text>
   
   <text xml:space="preserve" style="font-style:normal;font-variant:normal;font-weight:bold;font-stretch:normal;font-size:10px;line-height:0;font-family:monospace;text-align:center;text-anchor:center;fill:#000000;fill-opacity:1;stroke:none;stroke-width:8.97391;stroke-linecap:round;stroke-linejoin:bevel;stroke-dashoffset:0.0755906;paint-order:stroke markers fill" id="text5" x="134" y="110">71&#176;</text>
  <svg version="1.1" id="Layer_1" x="34" y="2">
<path d="M3.09,13.43c0,0.27,0.09,0.49,0.28,0.67s0.43,0.26,0.72,0.26h1.69c0.27,0,0.5-0.09,0.69-0.27s0.29-0.4,0.29-0.66  c0-0.29-0.09-0.53-0.28-0.71s-0.42-0.28-0.69-0.28H4.09c-0.29,0-0.53,0.09-0.72,0.28C3.18,12.89,3.09,13.13,3.09,13.43z M4.86,19.61  c0,0.97,0.35,1.81,1.06,2.52c0.71,0.71,1.54,1.06,2.51,1.06h6.86c0.97,0,1.8-0.35,2.49-1.05c0.69-0.7,1.04-1.54,1.04-2.53  c0-0.48-0.07-0.89-0.21-1.23c0.83-0.53,1.49-1.24,1.97-2.12c0.48-0.88,0.73-1.83,0.73-2.84c0-0.81-0.16-1.59-0.48-2.33  c-0.32-0.74-0.75-1.38-1.28-1.91c-0.53-0.53-1.17-0.96-1.91-1.28c-0.74-0.32-1.51-0.48-2.32-0.48c-1.09,0-2.1,0.27-3.02,0.81  s-1.65,1.27-2.18,2.18c-0.53,0.92-0.79,1.92-0.79,3.01v0.34c-1,0.57-1.66,1.4-1.98,2.49c-0.76,0.24-1.36,0.66-1.81,1.27  C5.09,18.13,4.86,18.83,4.86,19.61z M6.42,5.45c0,0.28,0.09,0.51,0.26,0.67l1.61,1.69c0.47,0.36,0.94,0.36,1.41,0  c0.19-0.19,0.28-0.42,0.28-0.7c0-0.27-0.09-0.5-0.28-0.7L8.05,4.76C7.84,4.57,7.6,4.47,7.35,4.47c-0.28,0-0.51,0.09-0.68,0.28  C6.5,4.94,6.42,5.17,6.42,5.45z M6.84,19.61c0-0.42,0.13-0.78,0.4-1.08c0.27-0.3,0.61-0.47,1.02-0.51l0.62-0.08  c0.13,0,0.2-0.08,0.2-0.23l0.09-0.56c0.07-0.58,0.31-1.06,0.73-1.44c0.42-0.39,0.91-0.58,1.48-0.58c0.58,0,1.09,0.19,1.51,0.58  c0.43,0.39,0.68,0.87,0.75,1.44l0.08,0.65c0.06,0.15,0.14,0.23,0.24,0.23h1.32c0.43,0,0.8,0.16,1.12,0.47  c0.32,0.31,0.47,0.68,0.47,1.12c0,0.45-0.16,0.83-0.47,1.15s-0.69,0.48-1.12,0.48H8.43c-0.45,0-0.83-0.16-1.13-0.48  C6.99,20.45,6.84,20.06,6.84,19.61z M11.26,13.22c0.07-1.09,0.49-2.01,1.27-2.76c0.77-0.74,1.71-1.12,2.79-1.12  c1.11,0,2.06,0.4,2.84,1.19c0.78,0.79,1.17,1.76,1.17,2.89c0,0.7-0.17,1.35-0.51,1.95c-0.34,0.6-0.8,1.08-1.38,1.45  c-0.59-0.49-1.27-0.73-2.03-0.73c-0.29-0.88-0.81-1.57-1.54-2.09c-0.73-0.52-1.56-0.78-2.48-0.78H11.26z M14.35,4.47  c0,0.27,0.1,0.51,0.29,0.7c0.19,0.19,0.42,0.29,0.69,0.29c0.28,0,0.51-0.1,0.7-0.29c0.19-0.19,0.29-0.42,0.29-0.7V2.13  c0-0.26-0.1-0.48-0.29-0.66c-0.19-0.18-0.42-0.27-0.7-0.27c-0.27,0-0.5,0.09-0.69,0.27c-0.19,0.18-0.29,0.4-0.29,0.66V4.47z   M20.67,19.7c0,0.27,0.09,0.5,0.27,0.7l1.64,1.62c0.42,0.42,0.89,0.42,1.41,0c0.18-0.17,0.26-0.39,0.26-0.68  c0-0.27-0.09-0.49-0.26-0.67L22.3,19c-0.18-0.17-0.41-0.25-0.68-0.25c-0.28,0-0.5,0.09-0.68,0.27C20.76,19.2,20.67,19.43,20.67,19.7  z M20.67,7.09c0,0.28,0.09,0.52,0.27,0.72c0.18,0.18,0.41,0.27,0.68,0.27c0.27,0,0.5-0.09,0.68-0.27l1.69-1.69  c0.18-0.17,0.26-0.39,0.26-0.67c0-0.28-0.1-0.51-0.29-0.69s-0.42-0.28-0.7-0.28c-0.26,0-0.49,0.1-0.68,0.29L20.94,6.4  C20.76,6.58,20.67,6.81,20.67,7.09z M23.25,13.43c0,0.27,0.09,0.49,0.28,0.67s0.43,0.26,0.72,0.26h1.69c0.27,0,0.5-0.09,0.69-0.27  s0.29-0.4,0.29-0.66c0-0.29-0.09-0.53-0.28-0.71s-0.42-0.28-0.69-0.28h-1.69c-0.29,0-0.53,0.09-0.72,0.28  C23.35,12.89,23.25,13.13,23.25,13.43z"/>
</svg><svg version="1.1" id="icon0" x="0" y="71">
<path d="M4.37,14.62c0-0.24,0.08-0.45,0.25-0.62c0.17-0.16,0.38-0.24,0.6-0.24h2.04c0.23,0,0.42,0.08,0.58,0.25  c0.15,0.17,0.23,0.37,0.23,0.61S8,15.06,7.85,15.23c-0.15,0.17-0.35,0.25-0.58,0.25H5.23c-0.23,0-0.43-0.08-0.6-0.25  C4.46,15.06,4.37,14.86,4.37,14.62z M7.23,21.55c0-0.23,0.08-0.43,0.23-0.61l1.47-1.43c0.15-0.16,0.35-0.23,0.59-0.23  c0.24,0,0.44,0.08,0.6,0.23s0.24,0.34,0.24,0.57c0,0.24-0.08,0.46-0.24,0.64L8.7,22.14c-0.41,0.32-0.82,0.32-1.23,0  C7.31,21.98,7.23,21.78,7.23,21.55z M7.23,7.71c0-0.23,0.08-0.43,0.23-0.61C7.66,6.93,7.87,6.85,8.1,6.85  c0.22,0,0.42,0.08,0.59,0.24l1.43,1.47c0.16,0.15,0.24,0.35,0.24,0.59c0,0.24-0.08,0.44-0.24,0.6s-0.36,0.24-0.6,0.24  c-0.24,0-0.44-0.08-0.59-0.24L7.47,8.32C7.31,8.16,7.23,7.95,7.23,7.71z M9.78,14.62c0-0.93,0.23-1.8,0.7-2.6s1.1-1.44,1.91-1.91  s1.67-0.7,2.6-0.7c0.7,0,1.37,0.14,2.02,0.42c0.64,0.28,1.2,0.65,1.66,1.12c0.47,0.47,0.84,1.02,1.11,1.66  c0.27,0.64,0.41,1.32,0.41,2.02c0,0.94-0.23,1.81-0.7,2.61c-0.47,0.8-1.1,1.43-1.9,1.9c-0.8,0.47-1.67,0.7-2.61,0.7  s-1.81-0.23-2.61-0.7c-0.8-0.47-1.43-1.1-1.9-1.9C10.02,16.43,9.78,15.56,9.78,14.62z M11.48,14.62c0,0.98,0.34,1.81,1.03,2.5  c0.68,0.69,1.51,1.04,2.49,1.04s1.81-0.35,2.5-1.04s1.04-1.52,1.04-2.5c0-0.96-0.35-1.78-1.04-2.47c-0.69-0.68-1.52-1.02-2.5-1.02  c-0.97,0-1.8,0.34-2.48,1.02C11.82,12.84,11.48,13.66,11.48,14.62z M14.14,22.4c0-0.24,0.08-0.44,0.25-0.6s0.37-0.24,0.6-0.24  c0.24,0,0.45,0.08,0.61,0.24s0.24,0.36,0.24,0.6v1.99c0,0.24-0.08,0.45-0.25,0.62c-0.17,0.17-0.37,0.25-0.6,0.25  s-0.44-0.08-0.6-0.25c-0.17-0.17-0.25-0.38-0.25-0.62V22.4z M14.14,6.9V4.86c0-0.23,0.08-0.43,0.25-0.6C14.56,4.09,14.76,4,15,4  s0.43,0.08,0.6,0.25c0.17,0.17,0.25,0.37,0.25,0.6V6.9c0,0.23-0.08,0.42-0.25,0.58S15.23,7.71,15,7.71s-0.44-0.08-0.6-0.23  S14.14,7.13,14.14,6.9z M19.66,20.08c0-0.23,0.08-0.42,0.23-0.56c0.15-0.16,0.34-0.23,0.56-0.23c0.24,0,0.44,0.08,0.6,0.23  l1.46,1.43c0.16,0.17,0.24,0.38,0.24,0.61c0,0.23-0.08,0.43-0.24,0.59c-0.4,0.31-0.8,0.31-1.2,0l-1.42-1.42  C19.74,20.55,19.66,20.34,19.66,20.08z M19.66,9.16c0-0.25,0.08-0.45,0.23-0.59l1.42-1.47c0.17-0.16,0.37-0.24,0.59-0.24  c0.24,0,0.44,0.08,0.6,0.25c0.17,0.17,0.25,0.37,0.25,0.6c0,0.25-0.08,0.46-0.24,0.62l-1.46,1.43c-0.18,0.16-0.38,0.24-0.6,0.24  c-0.23,0-0.41-0.08-0.56-0.24S19.66,9.4,19.66,9.16z M21.92,14.62c0-0.24,0.08-0.44,0.24-0.62c0.16-0.16,0.35-0.24,0.57-0.24h2.02  c0.23,0,0.43,0.09,0.6,0.26c0.17,0.17,0.26,0.37,0.26,0.6s-0.09,0.43-0.26,0.6c-0.17,0.17-0.37,0.25-0.6,0.25h-2.02  c-0.23,0-0.43-0.08-0.58-0.25S21.92,14.86,21.92,14.62z"/>
</svg><svg version="1.1" id="icon1" x="25" y="71">
<path d="M4.37,14.62c0-0.24,0.08-0.45,0.25-0.62c0.17-0.16,0.38-0.24,0.6-0.24h2.04c0.23,0,0.42,0.08,0.58,0.25  c0.15,0.17,0.23,0.37,0.23,0.61S8,15.06,7.85,15.23c-0.15,0.17-0.35,0.25-0.58,0.25H5.23c-0.23,0-0.43-0.08-0.6-0.25  C4.46,15.06,4.37,14.86,4.37,14.62z M7.23,21.55c0-0.23,0.08-0.43,0.23-0.61l1.47-1.43c0.15-0.16,0.35-0.23,0.59-0.23  c0.24,0,0.44,0.08,0.6,0.23s0.24,0.34,0.24,0.57c0,0.24-0.08,0.46-0.24,0.64L8.7,22.14c-0.41,0.32-0.82,0.32-1.23,0  C7.31,21.98,7.23,21.78,7.23,21.55z M7.23,7.71c0-0.23,0.08-0.43,0.23-0.61C7.66,6.93,7.87,6.85,8.1,6.85  c0.22,0,0.42,0.08,0.59,0.24l1.43,1.47c0.16,0.15,0.24,0.35,0.24,0.59c0,0.24-0.08,0.44-0.24,0.6s-0.36,0.24-0.6,0.24  c-0.24,0-0.44-0.08-0.59-0.24L7.47,8.32C7.31,8.16,7.23,7.95,7.23,7.71z M9.78,14.62c0-0.93,0.23-1.8,0.7-2.6s1.1-1.44,1.91-1.91  s1.67-0.7,2.6-0.7c0.7,0,1.37,0.14,2.02,0.42c0.64,0.28,1.2,0.65,1.66,1.12c0.47,0.47,0.84,1.02,1.11,1.66  c0.27,0.64,0.41,1.32,0.41,2.02c0,0.94-0.23,1.81-0.7,2.61c-0.47,0.8-1.1,1.43-1.9,1.9c-0.8,0.47-1.67,0.7-2.61,0.7  s-1.81-0.23-2.61-0.7c-0.8-0.47-1.43-1.1-1.9-1.9C10.02,16.43,9.78,15.56,9.78,14.62z M11.48,14.62c0,0.98,0.34,1.81,1.03,2.5  c0.68,0.69,1.51,1.04,2.49,1.04s1.81-0.35,2.5-1.04s1.04-1.52,1.04-2.5c0-0.96-0.35-1.78-1.04-2.47c-0.69-0.68-1.52-1.02-2.5-1.02  c-0.97,0-1.8,0.34-2.48,1.02C11.82,12.84,11.48,13.66,11.48,14.62z M14.14,22.4c0-0.24,0.08-0.44,0.25-0.6s0.37-0.24,0.6-0.24  c0.24,0,0.45,0.08,0.61,0.24s0.24,0.36,0.24,0.6v1.99c0,0.24-0.08,0.45-0.25,0.62c-0.17,0.17-0.37,0.25-0.6,0.25  s-0.44-0.08-0.6-0.25c-0.17-0.17-0.25-0.38-0.25-0.62V22.4z M14.14,6.9V4.86c0-0.23,0.08-0.43,0.25-0.6C14.56,4.09,14.76,4,15,4  s0.43,0.08,0.6,0.25c0.17,0.17,0.25,0.37,0.25,0.6V6.9c0,0.23-0.08,0.42-0.25,0.58S15.23,7.71,15,7.71s-0.44-0.08-0.6-0.23  S14.14,7.13,14.14,6.9z M19.66,20.08c0-0.23,0.08-0.42,0.23-0.56c0.15-0.16,0.34-0.23,0.56-0.23c0.24,0,0.44,0.08,0.6,0.23  l1.46,1.43c0.16,0.17,0.24,0.38,0.24,0.61c0,0.23-0.08,0.43-0.24,0.59c-0.4,0.31-0.8,0.31-1.2,0l-1.42-1.42  C19.74,20.55,19.66,20.34,19.66,20.08z M19.66,9.16c0-0.25,0.08-0.45,0.23-0.59l1.42-1.47c0.17-0.16,0.37-0.24,0.59-0.24  c0.24,0,0.44,0.08,0.6,0.25c0.17,0.17,0.25,0.37,0.25,0.6c0,0.25-0.08,0.46-0.24,0.62l-1.46,1.43c-0.18,0.16-0.38,0.24-0.6,0.24  c-0.23,0-0.41-0.08-0.56-0.24S19.66,9.4,19.66,9.16z M21.92,14.62c0-0.24,0.08-0.44,0.24-0.62c0.16-0.16,0.35-0.24,0.57-0.24h2.02  c0.23,0,0.43,0.09,0.6,0.26c0.17,0.17,0.26,0.37,0.26,0.6s-0.09,0.43-0.26,0.6c-0.17,0.17-0.37,0.25-0.6,0.25h-2.02  c-0.23,0-0.43-0.08-0.58-0.25S21.92,14.86,21.92,14.62z"/>
</svg><svg version="1.1" id="icon2" x="50" y="71">
<path d="M4.37,14.62c0-0.24,0.08-0.45,0.25-0.62c0.17-0.16,0.38-0.24,0.6-0.24h2.04c0.23,0,0.42,0.08,0.58,0.25  c0.15,0.17,0.23,0.37,0.23,0.61S8,15.06,7.85,15.23c-0.15,0.17-0.35,0.25-0.58,0.25H5.23c-0.23,0-0.43-0.08-0.6-0.25  C4.46,15.06,4.37,14.86,4.37,14.62z M7.23,21.55c0-0.23,0.08-0.43,0.23-0.61l1.47-1.43c0.15-0.16,0.35-0.23,0.59-0.23  c0.24,0,0.44,0.08,0.6,0.23s0.24,0.34,0.24,0.57c0,0.24-0.08,0.46-0.24,0.64L8.7,22.14c-0.41,0.32-0.82,0.32-1.23,0  C7.31,21.98,7.23,21.78,7.23,21.55z M7.23,7.71c0-0.23,0.08-0.43,0.23-0.61C7.66,6.93,7.87,6.85,8.1,6.85  c0.22,0,0.42,0.08,0.59,0.24l1.43,1.47c0.16,0.15,0.24,0.35,0.24,0.59c0,0.24-0.08,0.44-0.24,0.6s-0.36,0.24-0.6,0.24  c-0.24,0-0.44-0.08-0.59-0.24L7.47,8.32C7.31,8.16,7.23,7.95,7.23,7.71z M9.78,14.62c0-0.93,0.23-1.8,0.7-2.6s1.1-1.44,1.91-1.91  s1.67-0.7,2.6-0.7c0.7,0,1.37,0.14,2.02,0.42c0.64,0.28,1.2,0.65,1.66,1.12c0.47,0.47,0.84,1.02,1.11,1.66  c0.27,0.64,0.41,1.32,0.41,2.02c0,0.94-0.23,1.81-0.7,2.61c-0.47,0.8-1.1,1.43-1.9,1.9c-0.8,0.47-1.67,0.7-2.61,0.7  s-1.81-0.23-2.61-0.7c-0.8-0.47-1.43-1.1-1.9-1.9C10.02,16.43,9.78,15.56,9.78,14.62z M11.48,14.62c0,0.98,0.34,1.81,1.03,2.5  c0.68,0.69,1.51,1.04,2.49,1.04s1.81-0.35,2.5-1.04s1.04-1.52,1.04-2.5c0-0.96-0.35-1.78-1.04-2.47c-0.69-0.68-1.52-1.02-2.5-1.02  c-0.97,0-1.8,0.34-2.48,1.02C11.82,12.84,11.48,13.66,11.48,14.62z M14.14,22.4c0-0.24,0.08-0.44,0.25-0.6s0.37-0.24,0.6-0.24  c0.24,0,0.45,0.08,0.61,0.24s0.24,0.36,0.24,0.6v1.99c0,0.24-0.08,0.45-0.25,0.62c-0.17,0.17-0.37,0.25-0.6,0.25  s-0.44-0.08-0.6-0.25c-0.17-0.17-0.25-0.38-0.25-0.62V22.4z M14.14,6.9V4.86c0-0.23,0.08-0.43,0.25-0.6C14.56,4.09,14.76,4,15,4  s0.43,0.08,0.6,0.25c0.17,0.17,0.25,0.37,0.25,0.6V6.9c0,0.23-0.08,0.42-0.25,0.58S15.23,7.71,15,7.71s-0.44-0.08-0.6-0.23  S14.14,7.13,14.14,6.9z M19.66,20.08c0-0.23,0.08-0.42,0.23-0.56c0.15-0.16,0.34-0.23,0.56-0.23c0.24,0,0.44,0.08,0.6,0.23  l1.46,1.43c0.16,0.17,0.24,0.38,0.24,0.61c0,0.23-0.08,0.43-0.24,0.59c-0.4,0.31-0.8,0.31-1.2,0l-1.42-1.42  C19.74,20.55,19.66,20.34,19.66,20.08z M19.66,9.16c0-0.25,0.08-0.45,0.23-0.59l1.42-1.47c0.17-0.16,0.37-0.24,0.59-0.24  c0.24,0,0.44,0.08,0.6,0.25c0.17,0.17,0.25,0.37,0.25,0.6c0,0.25-0.08,0.46-0.24,0.62l-1.46,1.43c-0.18,0.16-0.38,0.24-0.6,0.24  c-0.23,0-0.41-0.08-0.56-0.24S19.66,9.4,19.66,9.16z M21.92,14.62c0-0.24,0.08-0.44,0.24-0.62c0.16-0.16,0.35-0.24,0.57-0.24h2.02  c0.23,0,0.43,0.09,0.6,0.26c0.17,0.17,0.26,0.37,0.26,0.6s-0.09,0.43-0.26,0.6c-0.17,0.17-0.37,0.25-0.6,0.25h-2.02  c-0.23,0-0.43-0.08-0.58-0.25S21.92,14.86,21.92,14.62z"/>
</svg><svg version="1.1" id="icon3" x="75" y="71">
<path d="M4.37,14.62c0-0.24,0.08-0.45,0.25-0.62c0.17-0.16,0.38-0.24,0.6-0.24h2.04c0.23,0,0.42,0.08,0.58,0.25  c0.15,0.17,0.23,0.37,0.23,0.61S8,15.06,7.85,15.23c-0.15,0.17-0.35,0.25-0.58,0.25H5.23c-0.23,0-0.43-0.08-0.6-0.25  C4.46,15.06,4.37,14.86,4.37,14.62z M7.23,21.55c0-0.23,0.08-0.43,0.23-0.61l1.47-1.43c0.15-0.16,0.35-0.23,0.59-0.23  c0.24,0,0.44,0.08,0.6,0.23s0.24,0.34,0.24,0.57c0,0.24-0.08,0.46-0.24,0.64L8.7,22.14c-0.41,0.32-0.82,0.32-1.23,0  C7.31,21.98,7.23,21.78,7.23,21.55z M7.23,7.71c0-0.23,0.08-0.43,0.23-0.61C7.66,6.93,7.87,6.85,8.1,6.85  c0.22,0,0.42,0.08,0.59,0.24l1.43,1.47c0.16,0.15,0.24,0.35,0.24,0.59c0,0.24-0.08,0.44-0.24,0.6s-0.36,0.24-0.6,0.24  c-0.24,0-0.44-0.08-0.59-0.24L7.47,8.32C7.31,8.16,7.23,7.95,7.23,7.71z M9.78,14.62c0-0.93,0.23-1.8,0.7-2.6s1.1-1.44,1.91-1.91  s1.67-0.7,2.6-0.7c0.7,0,1.37,0.14,2.02,0.42c0.64,0.28,1.2,0.65,1.66,1.12c0.47,0.47,0.84,1.02,1.11,1.66  c0.27,0.64,0.41,1.32,0.41,2.02c0,0.94-0.23,1.81-0.7,2.61c-0.47,0.8-1.1,1.43-1.9,1.9c-0.8,0.47-1.67,0.7-2.61,0.7  s-1.81-0.23-2.61-0.7c-0.8-0.47-1.43-1.1-1.9-1.9C10.02,16.43,9.78,15.56,9.78,14.62z M11.48,14.62c0,0.98,0.34,1.81,1.03,2.5  c0.68,0.69,1.51,1.04,2.49,1.04s1.81-0.35,2.5-1.04s1.04-1.52,1.04-2.5c0-0.96-0.35-1.78-1.04-2.47c-0.69-0.68-1.52-1.02-2.5-1.02  c-0.97,0-1.8,0.34-2.48,1.02C11.82,12.84,11.48,13.66,11.48,14.62z M14.14,22.4c0-0.24,0.08-0.44,0.25-0.6s0.37-0.24,0.6-0.24  c0.24,0,0.45,0.08,0.61,0.24s0.24,0.36,0.24,0.6v1.99c0,0.24-0.08,0.45-0.25,0.62c-0.17,0.17-0.37,0.25-0.6,0.25  s-0.44-0.08-0.6-0.25c-0.17-0.17-0.25-0.38-0.25-0.62V22.4z M14.14,6.9V4.86c0-0.23,0.08-0.43,0.25-0.6C14.56,4.09,14.76,4,15,4  s0.43,0.08,0.6,0.25c0.17,0.17,0.25,0.37,0.25,0.6V6.9c0,0.23-0.08,0.42-0.25,0.58S15.23,7.71,15,7.71s-0.44-0.08-0.6-0.23  S14.14,7.13,14.14,6.9z M19.66,20.08c0-0.23,0.08-0.42,0.23-0.56c0.15-0.16,0.34-0.23,0.56-0.23c0.24,0,0.44,0.08,0.6,0.23  l1.46,1.43c0.16,0.17,0.24,0.38,0.24,0.61c0,0.23-0.08,0.43-0.24,0.59c-0.4,0.31-0.8,0.31-1.2,0l-1.42-1.42  C19.74,20.55,19.66,20.34,19.66,20.08z M19.66,9.16c0-0.25,0.08-0.45,0.23-0.59l1.42-1.47c0.17-0.16,0.37-0.24,0.59-0.24  c0.24,0,0.44,0.08,0.6,0.25c0.17,0.17,0.25,0.37,0.25,0.6c0,0.25-0.08,0.46-0.24,0.62l-1.46,1.43c-0.18,0.16-0.38,0.24-0.6,0.24  c-0.23,0-0.41-0.08-0.56-0.24S19.66,9.4,19.66,9.16z M21.92,14.62c0-0.24,0.08-0.44,0.24-0.62c0.16-0.16,0.35-0.24,0.57-0.24h2.02  c0.23,0,0.43,0.09,0.6,0.26c0.17,0.17,0.26,0.37,0.26,0.6s-0.09,0.43-0.26,0.6c-0.17,0.17-0.37,0.25-0.6,0.25h-2.02  c-0.23,0-0.43-0.08-0.58-0.25S21.92,14.86,21.92,14.62z"/>
</svg><svg version="1.1" id="icon4" x="100" y="71">
<path d="M4.37,14.62c0-0.24,0.08-0.45,0.25-0.62c0.17-0.16,0.38-0.24,0.6-0.24h2.04c0.23,0,0.42,0.08,0.58,0.25  c0.15,0.17,0.23,0.37,0.23,0.61S8,15.06,7.85,15.23c-0.15,0.17-0.35,0.25-0.58,0.25H5.23c-0.23,0-0.43-0.08-0.6-0.25  C4.46,15.06,4.37,14.86,4.37,14.62z M7.23,21.55c0-0.23,0.08-0.43,0.23-0.61l1.47-1.43c0.15-0.16,0.35-0.23,0.59-0.23  c0.24,0,0.44,0.08,0.6,0.23s0.24,0.34,0.24,0.57c0,0.24-0.08,0.46-0.24,0.64L8.7,22.14c-0.41,0.32-0.82,0.32-1.23,0  C7.31,21.98,7.23,21.78,7.23,21.55z M7.23,7.71c0-0.23,0.08-0.43,0.23-0.61C7.66,6.93,7.87,6.85,8.1,6.85  c0.22,0,0.42,0.08,0.59,0.24l1.43,1.47c0.16,0.15,0.24,0.35,0.24,0.59c0,0.24-0.08,0.44-0.24,0.6s-0.36,0.24-0.6,0.24  c-0.24,0-0.44-0.08-0.59-0.24L7.47,8.32C7.31,8.16,7.23,7.95,7.23,7.71z M9.78,14.62c0-0.93,0.23-1.8,0.7-2.6s1.1-1.44,1.91-1.91  s1.67-0.7,2.6-0.7c0.7,0,1.37,0.14,2.02,0.42c0.64,0.28,1.2,0.65,1.66,1.12c0.47,0.47,0.84,1.02,1.11,1.66  c0.27,0.64,0.41,1.32,0.41,2.02c0,0.94-0.23,1.81-0.7,2.61c-0.47,0.8-1.1,1.43-1.9,1.9c-0.8,0.47-1.67,0.7-2.61,0.7  s-1.81-0.23-2.61-0.7c-0.8-0.47-1.43-1.1-1.9-1.9C10.02,16.43,9.78,15.56,9.78,14.62z M11.48,14.62c0,0.98,0.34,1.81,1.03,2.5  c0.68,0.69,1.51,1.04,2.49,1.04s1.81-0.35,2.5-1.04s1.04-1.52,1.04-2.5c0-0.96-0.35-1.78-1.04-2.47c-0.69-0.68-1.52-1.02-2.5-1.02  c-0.97,0-1.8,0.34-2.48,1.02C11.82,12.84,11.48,13.66,11.48,14.62z M14.14,22.4c0-0.24,0.08-0.44,0.25-0.6s0.37-0.24,0.6-0.24  c0.24,0,0.45,0.08,0.61,0.24s0.24,0.36,0.24,0.6v1.99c0,0.24-0.08,0.45-0.25,0.62c-0.17,0.17-0.37,0.25-0.6,0.25  s-0.44-0.08-0.6-0.25c-0.17-0.17-0.25-0.38-0.25-0.62V22.4z M14.14,6.9V4.86c0-0.23,0.08-0.43,0.25-0.6C14.56,4.09,14.76,4,15,4  s0.43,0.08,0.6,0.25c0.17,0.17,0.25,0.37,0.25,0.6V6.9c0,0.23-0.08,0.42-0.25,0.58S15.23,7.71,15,7.71s-0.44-0.08-0.6-0.23  S14.14,7.13,14.14,6.9z M19.66,20.08c0-0.23,0.08-0.42,0.23-0.56c0.15-0.16,0.34-0.23,0.56-0.23c0.24,0,0.44,0.08,0.6,0.23  l1.46,1.43c0.16,0.17,0.24,0.38,0.24,0.61c0,0.23-0.08,0.43-0.24,0.59c-0.4,0.31-0.8,0.31-1.2,0l-1.42-1.42  C19.74,20.55,19.66,20.34,19.66,20.08z M19.66,9.16c0-0.25,0.08-0.45,0.23-0.59l1.42-1.47c0.17-0.16,0.37-0.24,0.59-0.24  c0.24,0,0.44,0.08,0.6,0.25c0.17,0.17,0.25,0.37,0.25,0.6c0,0.25-0.08,0.46-0.24,0.62l-1.46,1.43c-0.18,0.16-0.38,0.24-0.6,0.24  c-0.23,0-0.41-0.08-0.56-0.24S19.66,9.4,19.66,9.16z M21.92,14.62c0-0.24,0.08-0.44,0.24-0.62c0.16-0.16,0.35-0.24,0.57-0.24h2.02  c0.23,0,0.43,0.09,0.6,0.26c0.17,0.17,0.26,0.37,0.26,0.6s-0.09,0.43-0.26,0.6c-0.17,0.17-0.37,0.25-0.6,0.25h-2.02  c-0.23,0-0.43-0.08-0.58-0.25S21.92,14.86,21.92,14.62z"/>
</svg><svg version="1.1" id="icon5" x="125" y="71">
<path d="M4.37,14.62c0-0.24,0.08-0.45,0.25-0.62c0.17-0.16,0.38-0.24,0.6-0.24h2.04c0.23,0,0.42,0.08,0.58,0.25  c0.15,0.17,0.23,0.37,0.23,0.61S8,15.06,7.85,15.23c-0.15,0.17-0.35,0.25-0.58,0.25H5.23c-0.23,0-0.43-0.08-0.6-0.25  C4.46,15.06,4.37,14.86,4.37,14.62z M7.23,21.55c0-0.23,0.08-0.43,0.23-0.61l1.47-1.43c0.15-0.16,0.35-0.23,0.59-0.23  c0.24,0,0.44,0.08,0.6,0.23s0.24,0.34,0.24,0.57c0,0.24-0.08,0.46-0.24,0.64L8.7,22.14c-0.41,0.32-0.82,0.32-1.23,0  C7.31,21.98,7.23,21.78,7.23,21.55z M7.23,7.71c0-0.23,0.08-0.43,0.23-0.61C7.66,6.93,7.87,6.85,8.1,6.85  c0.22,0,0.42,0.08,0.59,0.24l1.43,1.47c0.16,0.15,0.24,0.35,0.24,0.59c0,0.24-0.08,0.44-0.24,0.6s-0.36,0.24-0.6,0.24  c-0.24,0-0.44-0.08-0.59-0.24L7.47,8.32C7.31,8.16,7.23,7.95,7.23,7.71z M9.78,14.62c0-0.93,0.23-1.8,0.7-2.6s1.1-1.44,1.91-1.91  s1.67-0.7,2.6-0.7c0.7,0,1.37,0.14,2.02,0.42c0.64,0.28,1.2,0.65,1.66,1.12c0.47,0.47,0.84,1.02,1.11,1.66  c0.27,0.64,0.41,1.32,0.41,2.02c0,0.94-0.23,1.81-0.7,2.61c-0.47,0.8-1.1,1.43-1.9,1.9c-0.8,0.47-1.67,0.7-2.61,0.7  s-1.81-0.23-2.61-0.7c-0.8-0.47-1.43-1.1-1.9-1.9C10.02,16.43,9.78,15.56,9.78,14.62z M11.48,14.62c0,0.98,0.34,1.81,1.03,2.5  c0.68,0.69,1.51,1.04,2.49,1.04s1.81-0.35,2.5-1.04s1.04-1.52,1.04-2.5c0-0.96-0.35-1.78-1.04-2.47c-0.69-0.68-1.52-1.02-2.5-1.02  c-0.97,0-1.8,0.34-2.48,1.02C11.82,12.84,11.48,13.66,11.48,14.62z M14.14,22.4c0-0.24,0.08-0.44,0.25-0.6s0.37-0.24,0.6-0.24  c0.24,0,0.45,0.08,0.61,0.24s0.24,0.36,0.24,0.6v1.99c0,0.24-0.08,0.45-0.25,0.62c-0.17,0.17-0.37,0.25-0.6,0.25  s-0.44-0.08-0.6-0.25c-0.17-0.17-0.25-0.38-0.25-0.62V22.4z M14.14,6.9V4.86c0-0.23,0.08-0.43,0.25-0.6C14.56,4.09,14.76,4,15,4  s0.43,0.08,0.6,0.25c0.17,0.17,0.25,0.37,0.25,0.6V6.9c0,0.23-0.08,0.42-0.25,0.58S15.23,7.71,15,7.71s-0.44-0.08-0.6-0.23  S14.14,7.13,14.14,6.9z M19.66,20.08c0-0.23,0.08-0.42,0.23-0.56c0.15-0.16,0.34-0.23,0.56-0.23c0.24,0,0.44,0.08,0.6,0.23  l1.46,1.43c0.16,0.17,0.24,0.38,0.24,0.61c0,0.23-0.08,0.43-0.24,0.59c-0.4,0.31-0.8,0.31-1.2,0l-1.42-1.42  C19.74,20.55,19.66,20.34,19.66,20.08z M19.66,9.16c0-0.25,0.08-0.45,0.23-0.59l1.42-1.47c0.17-0.16,0.37-0.24,0.59-0.24  c0.24,0,0.44,0.08,0.6,0.25c0.17,0.17,0.25,0.37,0.25,0.6c0,0.25-0.08,0.46-0.24,0.62l-1.46,1.43c-0.18,0.16-0.38,0.24-0.6,0.24  c-0.23,0-0.41-0.08-0.56-0.24S19.66,9.4,19.66,9.16z M21.92,14.62c0-0.24,0.08-0.44,0.24-0.62c0.16-0.16,0.35-0.24,0.57-0.24h2.02  c0.23,0,0.43,0.09,0.6,0.26c0.17,0.17,0.26,0.37,0.26,0.6s-0.09,0.43-0.26,0.6c-0.17,0.17-0.37,0.25-0.6,0.25h-2.02  c-0.23,0-0.43-0.08-0.58-0.25S21.92,14.86,21.92,14.62z"/>
</svg></g>
</svg>