<svg xmlns:inkscape="http://www.inkscape.org/namespaces/inkscape" xmlns:sodipodi="http://sodipodi.sourceforge.net/DTD/sodipodi-0.dtd" xmlns="http://www.w3.org/2000/svg" xmlns:xlink="http://www.w3.org/1999/xlink" xmlns:svg="http://www.w3.org/2000/svg" width="600" height="800" viewBox="0 0 158.75 211.66667" version="1.1" id="svg5" sodipodi:docname="template.svg">
  <sodipodi:namedview id="namedview7" pagecolor="#ffffff" bordercolor="#000000" borderopacity="0.25"/>
  <defs id="defs2"/>
  <g id="layer1">
    <rect width="100%" height="100%" fill="white"/>

    <text xml:space="preserve" style="font-style:normal;font-variant:normal;font-weight:bold;font-stretch:normal;font-size:12px;line-height:0;font-family: monospace;text-align:center;text-anchor:left;fill:#000000;fill-opacity:1;stroke:none;stroke-width:8.97391;stroke-linecap:round;stroke-linejoin:bevel;stroke-dashoffset:0.0755906;paint-order:stroke markers fill" id="weekday" x="12" y="12">Thursday</text>
   <text xml:space="preserve" style="font-style:normal;font-variant:normal;font-weight:bold;font-stretch:normal;font-size:12px;line-height:0;font-family: monospace;text-align:center;text-anchor:left;fill:#000000;fill-opacity:1;stroke:none;stroke-width:8.97391;stroke-linecap:round;stroke-linejoin:bevel;stroke-dashoffset:0.0755906;paint-order:stroke markers fill" id="date" x="12" y="25">November 13</text>

   <text xml:space="preserve" style="font-style:normal;font-variant:normal;font-weight:bold;font-stretch:normal;font-size:12px;line-height:0;font-family: monospace;text-align:center;text-anchor:left;fill:#000000;fill-opacity:1;stroke:none;stroke-width:8.97391;stroke-linecap:round;stroke-linejoin:bevel;stroke-dashoffset:0.0755906;paint-order:stroke markers fill" id="currtemp" x="125" y="20">47&#176;</text>

   <text xml:space="preserve" id="low" style="font-style:normal;font-variant:normal;font-weight:bold;font-stretch:normal;font-size:12px;line-height:0;font-family:monospace;text-align:center;text-anchor:left;fill:#000000;fill-opacity:1;stroke:none;stroke-width:8.97391;stroke-linecap:round;stroke-linejoin:bevel;stroke-dashoffset:0.0755906;paint-order:stroke markers fill" x="10" y="50">Low:
   </text>
   <text xml:space="preserve" style="font-style:normal;font-variant:normal;font-weight:bold;font-stretch:normal;font-size:12px;line-height:0;font-family:monospace;text-align:center;text-anchor:left;fill:#000000;fill-opacity:1;stroke:none;stroke-width:8.97391;stroke-linecap:round;stroke-linejoin:bevel;stroke-dashoffset:0.0755906;paint-order:stroke markers fill" id="lowtemp" x="39" y="50">34&#176;</text>

    <text xml:space="preserve" id="high" style="font-style:normal;font-variant:normal;font-weight:bold;font-stretch:normal;font-size:12px;line-height:0;font-family:monospace;fill:#000000;;text-align:center;text-anchor:left;fill:#000000;fill-opacity:1;stroke:none;stroke-width:8.97391;stroke-linecap:round;stroke-linejoin:bevel;stroke-dashoffset:0.0755906;paint-order:stroke markers fill" x="80" y="50">High:</text>

    <text xml:space="preserve" style="font-style:normal;font-variant:normal;font-weight:bold;font-stretch:normal;font-size:12px;line-height:0;font-family:monospace;text-align:center;text-anchor:left;fill:#000000;fill-opacity:1;stroke:none;stroke-width:8.97391;stroke-linecap:round;stroke-linejoin:bevel;stroke-dashoffset:0.0755906;paint-order:stroke markers fill" id="hightemp" x="115" y="50">49&#176;</text>
   
   <!-- Hourly forecast-->

   <text xml:space="preserve" style="font-style:normal;font-variant:normal;font-weight:bold;font-stretch:normal;font-size:9px;line-height:0;font-family:monospace;text-align:center;text-anchor:center;fill:#000000;fill-opacity:1;stroke:none;stroke-width:8.97391;stroke-linecap:round;stroke-linejoin:bevel;stroke-dashoffset:0.0755906;paint-order:stroke markers fill" id="time0" x="7" y="72">5PM</text>
   
   <text xml:space="preserve" style="font-style:normal;font-variant:normal;font-weight:bold;font-stretch:normal;font-size:9px;line-height:0;font-family:monospace;text-align:center;text-anchor:center;fill:#000000;fill-opacity:1;stroke:none;stroke-width:8.97391;stroke-linecap:round;stroke-linejoin:bevel;stroke-dashoffset:0.0755906;paint-order:stroke markers fill" id="time1" x="32" y="72">6PM</text>
   
   <text xml:space="preserve" style="font-style:normal;font-variant:normal;font-weight:bold;font-stretch:normal;font-size:9px;line-height:0;font-family:monospace;text-align:center;text-anchor:center;fill:#000000;fill-opacity:1;stroke:none;stroke-width:8.97391;stroke-linecap:round;stroke-linejoin:bevel;stroke-dashoffset:0.0755906;paint-order:stroke markers fill" id="time2" x="57" y="72">7PM</text>

   <text xml:space="preserve" style="font-style:normal;font-variant:normal;font-weight:bold;font-stretch:normal;font-size:9px;line-height:0;font-family:monospace;text-align:center;text-anchor:center;fill:#000000;fill-opacity:1;stroke:none;stroke-width:8.97391;stroke-linecap:round;stroke-linejoin:bevel;stroke-dashoffset:0.0755906;paint-order:stroke markers fill" id="time3" x="82" y="72">8PM</text>
   
   <text xml:space="preserve" style="font-style:normal;font-variant:normal;font-weight:bold;font-stretch:normal;font-size:9px;line-height:0;font-family:monospace;text-align:center;text-anchor:center;fill:#000000;fill-opacity:1;stroke:none;stroke-width:8.97391;stroke-linecap:round;stroke-linejoin:bevel;stroke-dashoffset:0.0755906;paint-order:stroke markers fill" id="time4" x="107" y="72">9PM</text>
   
   <text xml:space="preserve" style="font-style:normal;font-variant:normal;font-weight:bold;font-stretch:normal;font-size:9px;line-height:0;font-family:monospace;text-align:center;text-anchor:center;fill:#000000;fill-opacity:1;stroke:none;stroke-width:8.97391;stroke-linecap:round;stroke-linejoin:bevel;stroke-dashoffset:0.0755906;paint-order:stroke markers fill" id="time5" x="132" y="72">10PM</text>

   <text xml:space="preserve" style="font-style:normal;font-variant:normal;font-weight:bold;font-stretch:normal;font-size:10px;line-height:0;font-family:monospace;text-align:center;text-anchor:center;fill:#000000;fill-opacity:1;stroke:none;stroke-width:8.97391;stroke-linecap:round;stroke-linejoin:bevel;stroke-dashoffset:0.0755906;paint-order:stroke markers fill" id="text0" x="8" y="115">47&#176;</text>
   
   <text xml:space="preserve" style="font-style:normal;font-variant:normal;font-weight:bold;font-stretch:normal;font-size:10px;line-height:0;font-family:monospace;text-align:center;text-anchor:center;fill:#000000;fill-opacity:1;stroke:none;stroke-width:8.97391;stroke-linecap:round;stroke-linejoin:bevel;stroke-dashoffset:0.0755906;paint-order:stroke markers fill" id="text1" x="33" y="115">40&#176;</text>

   <text xml:space="preserve" style="font-style:normal;font-variant:normal;font-weight:bold;font-stretch:normal;font-size:10px;line-height:0;font-family:monospace;text-align:center;text-anchor:center;fill:#000000;fill-opacity:1;stroke:none;stroke-width:8.97391;stroke-linecap:round;stroke-linejoin:bevel;stroke-dashoffset:0.0755906;paint-order:stroke markers fill" id="text2" x="58" y="115">39&#176;</text>
   
   <text xml:space="preserve" style="font-style:normal;font-variant:normal;font-weight:bold;font-stretch:normal;font-size:10px;line-height:0;font-family:monospace;text-align:center;text-anchor:center;fill:#000000;fill-opacity:1;stroke:none;stroke-width:8.97391;stroke-linecap:round;stroke-linejoin:bevel;stroke-dashoffset:0.0755906;paint-order:stroke markers fill" id="text3" x="83" y="115">38&#176;</text>
   
   <text xml:space="preserve" style="font-style:normal;font-variant:normal;font-weight:bold;font-stretch:normal;font-size:10px;line-height:0;font-family:monospace;text-align:center;text-anchor:center;fill:#000000;fill-opacity:1;stroke:none;stroke-width:8.97391;stroke-linecap:round;stroke-linejoin:bevel;stroke-dashoffset:0.0755906;paint-order:stroke markers fill" id="text4" x="108" y="115">38&#176;</text>
   
   <text xml:space="preserve" style="font-style:normal;font-variant:normal;font-weight:bold;font-stretch:normal;font-size:10px;line-height:0;font-family:monospace;text-align:center;text-anchor:center;fill:#000000;fill-opacity:1;stroke:none;stroke-width:8.97391;stroke-linecap:round;stroke-linejoin:bevel;stroke-dashoffset:0.0755906;paint-order:stroke markers fill" id="text5" x="133" y="115">36&#176;</text>
   
   <text xml:space="preserve" style="font-style:normal;font-variant:normal;font-weight:bold;font-stretch:normal;font-size:10px;line-height:0;font-family:monospace;text-align:center;text-anchor:center;fill:#000000;fill-opacity:1;stroke:none;stroke-width:8.97391;stroke-linecap:round;stroke-linejoin:bevel;stroke-dashoffset:0.0755906;paint-order:stroke markers fill" x="10" y="134">Ashmont/Braintree</text>
   
   <text xml:space="preserve" style="font-style:normal;font-variant:normal;font-weight:bold;font-stretch:normal;font-size:10px;line-height:0;font-family:monospace;text-align:center;text-anchor:center;fill:#000000;fill-opacity:1;stroke:none;stroke-width:8.97391;stroke-linecap:round;stroke-linejoin:bevel;stroke-dashoffset:0.0755906;paint-order:stroke markers fill" x="10" y="175">Alewife</text>
  <svg version="1.1" id="Layer_1" x="94" y="2">
<path d="M3.89,17.6c0-0.99,0.31-1.88,0.93-2.65s1.41-1.27,2.38-1.49c0.26-1.17,0.85-2.14,1.78-2.88c0.93-0.75,2-1.12,3.22-1.12  c1.18,0,2.24,0.36,3.16,1.09c0.93,0.73,1.53,1.66,1.8,2.8h0.27c1.18,0,2.18,0.41,3.01,1.24s1.25,1.83,1.25,3  c0,1.18-0.42,2.18-1.25,3.01s-1.83,1.25-3.01,1.25H8.16c-0.58,0-1.13-0.11-1.65-0.34S5.52,21,5.14,20.62  c-0.38-0.38-0.68-0.84-0.91-1.36S3.89,18.17,3.89,17.6z M5.34,17.6c0,0.76,0.28,1.42,0.82,1.96s1.21,0.82,1.99,0.82h9.28  c0.77,0,1.44-0.27,1.99-0.82c0.55-0.55,0.83-1.2,0.83-1.96c0-0.76-0.27-1.42-0.83-1.96c-0.55-0.54-1.21-0.82-1.99-0.82h-1.39  c-0.1,0-0.15-0.05-0.15-0.15l-0.07-0.49c-0.1-0.94-0.5-1.73-1.19-2.35s-1.51-0.93-2.45-0.93c-0.94,0-1.76,0.31-2.46,0.94  c-0.7,0.62-1.09,1.41-1.18,2.34l-0.07,0.42c0,0.1-0.05,0.15-0.16,0.15l-0.45,0.07c-0.72,0.06-1.32,0.36-1.81,0.89  C5.59,16.24,5.34,16.87,5.34,17.6z M14.19,8.88c-0.1,0.09-0.08,0.16,0.07,0.21c0.43,0.19,0.79,0.37,1.08,0.55  c0.11,0.03,0.19,0.02,0.22-0.03c0.61-0.57,1.31-0.86,2.12-0.86c0.81,0,1.5,0.27,2.1,0.81c0.59,0.54,0.92,1.21,0.99,2l0.09,0.64h1.42  c0.65,0,1.21,0.23,1.68,0.7c0.47,0.47,0.7,1.02,0.7,1.66c0,0.6-0.21,1.12-0.62,1.57s-0.92,0.7-1.53,0.77c-0.1,0-0.15,0.05-0.15,0.16  v1.13c0,0.11,0.05,0.16,0.15,0.16c1.01-0.06,1.86-0.46,2.55-1.19s1.04-1.6,1.04-2.6c0-1.06-0.37-1.96-1.12-2.7  c-0.75-0.75-1.65-1.12-2.7-1.12h-0.15c-0.26-1-0.81-1.82-1.65-2.47c-0.83-0.65-1.77-0.97-2.8-0.97C16.28,7.29,15.11,7.82,14.19,8.88  z"/>
</svg><svg version="1.1" id="icon0" x="0" y="76">
<path d="M3.89,17.6c0-0.99,0.31-1.88,0.93-2.65s1.41-1.27,2.38-1.49c0.26-1.17,0.85-2.14,1.78-2.88c0.93-0.75,2-1.12,3.22-1.12  c1.18,0,2.24,0.36,3.16,1.09c0.93,0.73,1.53,1.66,1.8,2.8h0.27c1.18,0,2.18,0.41,3.01,1.24s1.25,1.83,1.25,3  c0,1.18-0.42,2.18-1.25,3.01s-1.83,1.25-3.01,1.25H8.16c-0.58,0-1.13-0.11-1.65-0.34S5.52,21,5.14,20.62  c-0.38-0.38-0.68-0.84-0.91-1.36S3.89,18.17,3.89,17.6z M5.34,17.6c0,0.76,0.28,1.42,0.82,1.96s1.21,0.82,1.99,0.82h9.28  c0.77,0,1.44-0.27,1.99-0.82c0.55-0.55,0.83-1.2,0.83-1.96c0-0.76-0.27-1.42-0.83-1.96c-0.55-0.54-1.21-0.82-1.99-0.82h-1.39  c-0.1,0-0.15-0.05-0.15-0.15l-0.07-0.49c-0.1-0.94-0.5-1.73-1.19-2.35s-1.51-0.93-2.45-0.93c-0.94,0-1.76,0.31-2.46,0.94  c-0.7,0.62-1.09,1.41-1.18,2.34l-0.07,0.42c0,0.1-0.05,0.15-0.16,0.15l-0.45,0.07c-0.72,0.06-1.32,0.36-1.81,0.89  C5.59,16.24,5.34,16.87,5.34,17.6z M14.19,8.88c-0.1,0.09-0.08,0.16,0.07,0.21c0.43,0.19,0.79,0.37,1.08,0.55  c0.11,0.03,0.19,0.02,0.22-0.03c0.61-0.57,1.31-0.86,2.12-0.86c0.81,0,1.5,0.27,2.1,0.81c0.59,0.54,0.92,1.21,0.99,2l0.09,0.64h1.42  c0.65,0,1.21,0.23,1.68,0.7c0.47,0.47,0.7,1.02,0.7,1.66c0,0.6-0.21,1.12-0.62,1.57s-0.92,0.7-1.53,0.77c-0.1,0-0.15,0.05-0.15,0.16  v1.13c0,0.11,0.05,0.16,0.15,0.16c1.01-0.06,1.86-0.46,2.55-1.19s1.04-1.6,1.04-2.6c0-1.06-0.37-1.96-1.12-2.7  c-0.75-0.75-1.65-1.12-2.7-1.12h-0.15c-0.26-1-0.81-1.82-1.65-2.47c-0.83-0.65-1.77-0.97-2.8-0.97C16.28,7.29,15.11,7.82,14.19,8.88  z"/>
</svg><svg version="1.1" id="icon1" x="25" y="76">
<path d="M4.64,16.91c0-1.15,0.36-2.17,1.08-3.07c0.72-0.9,1.63-1.47,2.73-1.73c0.31-1.36,1.02-2.48,2.11-3.36s2.34-1.31,3.75-1.31  c1.38,0,2.6,0.43,3.68,1.28c1.08,0.85,1.78,1.95,2.1,3.29h0.32c0.89,0,1.72,0.22,2.48,0.65s1.37,1.03,1.81,1.78  c0.44,0.75,0.67,1.58,0.67,2.47c0,0.88-0.21,1.69-0.63,2.44c-0.42,0.75-1,1.35-1.73,1.8c-0.73,0.45-1.53,0.69-2.4,0.71  c-0.13,0-0.2-0.06-0.2-0.17v-1.33c0-0.12,0.07-0.18,0.2-0.18c0.85-0.04,1.58-0.38,2.18-1.02s0.9-1.39,0.9-2.26s-0.33-1.62-0.98-2.26  s-1.42-0.96-2.31-0.96h-1.61c-0.12,0-0.18-0.06-0.18-0.17l-0.08-0.58c-0.11-1.08-0.58-1.99-1.39-2.71  c-0.82-0.73-1.76-1.09-2.85-1.09c-1.09,0-2.05,0.36-2.85,1.09c-0.81,0.73-1.26,1.63-1.36,2.71l-0.07,0.53c0,0.12-0.07,0.19-0.2,0.19  l-0.53,0.03c-0.83,0.1-1.53,0.46-2.1,1.07s-0.85,1.33-0.85,2.16c0,0.87,0.3,1.62,0.9,2.26s1.33,0.98,2.18,1.02  c0.11,0,0.17,0.06,0.17,0.18v1.33c0,0.11-0.06,0.17-0.17,0.17c-1.34-0.06-2.47-0.57-3.4-1.53S4.64,18.24,4.64,16.91z M9.99,23.6  c0-0.04,0.01-0.11,0.04-0.2l1.63-5.77c0.06-0.19,0.17-0.34,0.32-0.44c0.15-0.1,0.31-0.15,0.46-0.15c0.07,0,0.15,0.01,0.24,0.03  c0.24,0.04,0.42,0.17,0.54,0.37c0.12,0.2,0.15,0.42,0.08,0.67l-1.63,5.73c-0.12,0.43-0.4,0.64-0.82,0.64  c-0.04,0-0.07-0.01-0.11-0.02c-0.06-0.02-0.09-0.03-0.1-0.03c-0.22-0.06-0.38-0.17-0.49-0.33C10.04,23.93,9.99,23.77,9.99,23.6z   M12.61,26.41l2.44-8.77c0.04-0.19,0.14-0.34,0.3-0.44c0.16-0.1,0.32-0.15,0.49-0.15c0.09,0,0.18,0.01,0.27,0.03  c0.22,0.06,0.38,0.19,0.49,0.39c0.11,0.2,0.13,0.41,0.07,0.64l-2.43,8.78c-0.04,0.17-0.13,0.31-0.29,0.43  c-0.16,0.12-0.32,0.18-0.51,0.18c-0.09,0-0.18-0.02-0.25-0.05c-0.2-0.05-0.37-0.18-0.52-0.39C12.56,26.88,12.54,26.67,12.61,26.41z   M16.74,23.62c0-0.04,0.01-0.11,0.04-0.23l1.63-5.77c0.06-0.19,0.16-0.34,0.3-0.44c0.15-0.1,0.3-0.15,0.46-0.15  c0.08,0,0.17,0.01,0.26,0.03c0.21,0.06,0.36,0.16,0.46,0.31c0.1,0.15,0.15,0.31,0.15,0.47c0,0.03-0.01,0.08-0.02,0.14  s-0.02,0.1-0.02,0.12l-1.63,5.73c-0.04,0.19-0.13,0.35-0.28,0.46s-0.32,0.17-0.51,0.17l-0.24-0.05c-0.2-0.06-0.35-0.16-0.46-0.32  C16.79,23.94,16.74,23.78,16.74,23.62z"/>
</svg><svg version="1.1" id="icon2" x="50" y="76">
<path d="M3.89,17.6c0-0.99,0.31-1.88,0.93-2.65s1.41-1.27,2.38-1.49c0.26-1.17,0.85-2.14,1.78-2.88c0.93-0.75,2-1.12,3.22-1.12  c1.18,0,2.24,0.36,3.16,1.09c0.93,0.73,1.53,1.66,1.8,2.8h0.27c1.18,0,2.18,0.41,3.01,1.24s1.25,1.83,1.25,3  c0,1.18-0.42,2.18-1.25,3.01s-1.83,1.25-3.01,1.25H8.16c-0.58,0-1.13-0.11-1.65-0.34S5.52,21,5.14,20.62  c-0.38-0.38-0.68-0.84-0.91-1.36S3.89,18.17,3.89,17.6z M5.34,17.6c0,0.76,0.28,1.42,0.82,1.96s1.21,0.82,1.99,0.82h9.28  c0.77,0,1.44-0.27,1.99-0.82c0.55-0.55,0.83-1.2,0.83-1.96c0-0.76-0.27-1.42-0.83-1.96c-0.55-0.54-1.21-0.82-1.99-0.82h-1.39  c-0.1,0-0.15-0.05-0.15-0.15l-0.07-0.49c-0.1-0.94-0.5-1.73-1.19-2.35s-1.51-0.93-2.45-0.93c-0.94,0-1.76,0.31-2.46,0.94  c-0.7,0.62-1.09,1.41-1.18,2.34l-0.07,0.42c0,0.1-0.05,0.15-0.16,0.15l-0.45,0.07c-0.72,0.06-1.32,0.36-1.81,0.89  C5.59,16.24,5.34,16.87,5.34,17.6z M14.19,8.88c-0.1,0.09-0.08,0.16,0.07,0.21c0.43,0.19,0.79,0.37,1.08,0.55  c0.11,0.03,0.19,0.02,0.22-0.03c0.61-0.57,1.31-0.86,2.12-0.86c0.81,0,1.5,0.27,2.1,0.81c0.59,0.54,0.92,1.21,0.99,2l0.09,0.64h1.42  c0.65,0,1.21,0.23,1.68,0.7c0.47,0.47,0.7,1.02,0.7,1.66c0,0.6-0.21,1.12-0.62,1.57s-0.92,0.7-1.53,0.77c-0.1,0-0.15,0.05-0.15,0.16  v1.13c0,0.11,0.05,0.16,0.15,0.16c1.01-0.06,1.86-0.46,2.55-1.19s1.04-1.6,1.04-2.6c0-1.06-0.37-1.96-1.12-2.7  c-0.75-0.75-1.65-1.12-2.7-1.12h-0.15c-0.26-1-0.81-1.82-1.65-2.47c-0.83-0.65-1.77-0.97-2.8-0.97C16.28,7.29,15.11,7.82,14.19,8.88  z"/>
</svg><svg version="1.1" id="icon3" x="75" y="76">
<path d="M3.09,13.43c0,0.27,0.09,0.49,0.28,0.67s0.43,0.26,0.72,0.26h1.69c0.27,0,0.5-0.09,0.69-0.27s0.29-0.4,0.29-0.66  c0-0.29-0.09-0.53-0.28-0.71s-0.42-0.28-0.69-0.28H4.09c-0.29,0-0.53,0.09-0.72,0.28C3.18,12.89,3.09,13.13,3.09,13.43z M4.86,19.61  c0,0.97,0.35,1.81,1.06,2.52c0.71,0.71,1.54,1.06,2.51,1.06h6.86c0.97,0,1.8-0.35,2.49-1.05c0.69-0.7,1.04-1.54,1.04-2.53  c0-0.48-0.07-0.89-0.21-1.23c0.83-0.53,1.49-1.24,1.97-2.12c0.48-0.88,0.73-1.83,0.73-2.84c0-0.81-0.16-1.59-0.48-2.33  c-0.32-0.74-0.75-1.38-1.28-1.91c-0.53-0.53-1.17-0.96-1.91-1.28c-0.74-0.32-1.51-0.48-2.32-0.48c-1.09,0-2.1,0.27-3.02,0.81  s-1.65,1.27-2.18,2.18c-0.53,0.92-0.79,1.92-0.79,3.01v0.34c-1,0.57-1.66,1.4-1.98,2.49c-0.76,0.24-1.36,0.66-1.81,1.27  C5.09,18.13,4.86,18.83,4.86,19.61z M6.42,5.45c0,0.28,0.09,0.51,0.26,0.67l1.61,1.69c0.47,0.36,0.94,0.36,1.41,0  c0.19-0.19,0.28-0.42,0.28-0.7c0-0.27-0.09-0.5-0.28-0.7L8.05,4.76C7.84,4.57,7.6,4.47,7.35,4.47c-0.28,0-0.51,0.09-0.68,0.28  C6.5,4.94,6.42,5.17,6.42,5.45z M6.84,19.61c0-0.42,0.13-0.78,0.4-1.08c0.27-0.3,0.61-0.47,1.02-0.51l0.62-0.08  c0.13,0,0.2-0.08,0.2-0.23l0.09-0.56c0.07-0.58,0.31-1.06,0.73-1.44c0.42-0.39,0.91-0.58,1.48-0.58c0.58,0,1.09,0.19,1.51,0.58  c0.43,0.39,0.68,0.87,0.75,1.44l0.08,0.65c0.06,0.15,0.14,0.23,0.24,0.23h1.32c0.43,0,0.8,0.16,1.12,0.47  c0.32,0.31,0.47,0.68,0.47,1.12c0,0.45-0.16,0.83-0.47,1.15s-0.69,0.48-1.12,0.48H8.43c-0.45,0-0.83-0.16-1.13-0.48  C6.99,20.45,6.84,20.06,6.84,19.61z M11.26,13.22c0.07-1.09,0.49-2.01,1.27-2.76c0.77-0.74,1.71-1.12,2.79-1.12  c1.11,0,2.06,0.4,2.84,1.19c0.78,0.79,1.17,1.76,1.17,2.89c0,0.7-0.17,1.35-0.51,1.95c-0.34,0.6-0.8,1.08-1.38,1.45  c-0.59-0.49-1.27-0.73-2.03-0.73c-0.29-0.88-0.81-1.57-1.54-2.09c-0.73-0.52-1.56-0.78-2.48-0.78H11.26z M14.35,4.47  c0,0.27,0.1,0.51,0.29,0.7c0.19,0.19,0.42,0.29,0.69,0.29c0.28,0,0.51-0.1,0.7-0.29c0.19-0.19,0.29-0.42,0.29-0.7V2.13  c0-0.26-0.1-0.48-0.29-0.66c-0.19-0.18-0.42-0.27-0.7-0.27c-0.27,0-0.5,0.09-0.69,0.27c-0.19,0.18-0.29,0.4-0.29,0.66V4.47z   M20.67,19.7c0,0.27,0.09,0.5,0.27,0.7l1.64,1.62c0.42,0.42,0.89,0.42,1.41,0c0.18-0.17,0.26-0.39,0.26-0.68  c0-0.27-0.09-0.49-0.26-0.67L22.3,19c-0.18-0.17-0.41-0.25-0.68-0.25c-0.28,0-0.5,0.09-0.68,0.27C20.76,19.2,20.67,19.43,20.67,19.7  z M20.67,7.09c0,0.28,0.09,0.52,0.27,0.72c0.18,0.18,0.41,0.27,0.68,0.27c0.27,0,0.5-0.09,0.68-0.27l1.69-1.69  c0.18-0.17,0.26-0.39,0.26-0.67c0-0.28-0.1-0.51-0.29-0.69s-0.42-0.28-0.7-0.28c-0.26,0-0.49,0.1-0.68,0.29L20.94,6.4  C20.76,6.58,20.67,6.81,20.67,7.09z M23.25,13.43c0,0.27,0.09,0.49,0.28,0.67s0.43,0.26,0.72,0.26h1.69c0.27,0,0.5-0.09,0.69-0.27  s0.29-0.4,0.29-0.66c0-0.29-0.09-0.53-0.28-0.71s-0.42-0.28-0.69-0.28h-1.69c-0.29,0-0.53,0.09-0.72,0.28  C23.35,12.89,23.25,13.13,23.25,13.43z"/>
</svg><svg version="1.1" id="icon4" x="100" y="76">
<path d="M3.89,17.6c0-0.99,0.31-1.88,0.93-2.65s1.41-1.27,2.38-1.49c0.26-1.17,0.85-2.14,1.78-2.88c0.93-0.75,2-1.12,3.22-1.12  c1.18,0,2.24,0.36,3.16,1.09c0.93,0.73,1.53,1.66,1.8,2.8h0.27c1.18,0,2.18,0.41,3.01,1.24s1.25,1.83,1.25,3  c0,1.18-0.42,2.18-1.25,3.01s-1.83,1.25-3.01,1.25H8.16c-0.58,0-1.13-0.11-1.65-0.34S5.52,21,5.14,20.62  c-0.38-0.38-0.68-0.84-0.91-1.36S3.89,18.17,3.89,17.6z M5.34,17.6c0,0.76,0.28,1.42,0.82,1.96s1.21,0.82,1.99,0.82h9.28  c0.77,0,1.44-0.27,1.99-0.82c0.55-0.55,0.83-1.2,0.83-1.96c0-0.76-0.27-1.42-0.83-1.96c-0.55-0.54-1.21-0.82-1.99-0.82h-1.39  c-0.1,0-0.15-0.05-0.15-0.15l-0.07-0.49c-0.1-0.94-0.5-1.73-1.19-2.35s-1.51-0.93-2.45-0.93c-0.94,0-1.76,0.31-2.46,0.94  c-0.7,0.62-1.09,1.41-1.18,2.34l-0.07,0.42c0,0.1-0.05,0.15-0.16,0.15l-0.45,0.07c-0.72,0.06-1.32,0.36-1.81,0.89  C5.59,16.24,5.34,16.87,5.34,17.6z M14.19,8.88c-0.1,0.09-0.08,0.16,0.07,0.21c0.43,0.19,0.79,0.37,1.08,0.55  c0.11,0.03,0.19,0.02,0.22-0.03c0.61-0.57,1.31-0.86,2.12-0.86c0.81,0,1.5,0.27,2.1,0.81c0.59,0.54,0.92,1.21,0.99,2l0.09,0.64h1.42  c0.65,0,1.21,0.23,1.68,0.7c0.47,0.47,0.7,1.02,0.7,1.66c0,0.6-0.21,1.12-0.62,1.57s-0.92,0.7-1.53,0.77c-0.1,0-0.15,0.05-0.15,0.16  v1.13c0,0.11,0.05,0.16,0.15,0.16c1.01-0.06,1.86-0.46,2.55-1.19s1.04-1.6,1.04-2.6c0-1.06-0.37-1.96-1.12-2.7  c-0.75-0.75-1.65-1.12-2.7-1.12h-0.15c-0.26-1-0.81-1.82-1.65-2.47c-0.83-0.65-1.77-0.97-2.8-0.97C16.28,7.29,15.11,7.82,14.19,8.88  z"/>
</svg><svg version="1.1" id="icon5" x="125" y="76">
<path d="M3.09,13.43c0,0.27,0.09,0.49,0.28,0.67s0.43,0.26,0.72,0.26h1.69c0.27,0,0.5-0.09,0.69-0.27s0.29-0.4,0.29-0.66  c0-0.29-0.09-0.53-0.28-0.71s-0.42-0.28-0.69-0.28H4.09c-0.29,0-0.53,0.09-0.72,0.28C3.18,12.89,3.09,13.13,3.09,13.43z M4.86,19.61  c0,0.97,0.35,1.81,1.06,2.52c0.71,0.71,1.54,1.06,2.51,1.06h6.86c0.97,0,1.8-0.35,2.49-1.05c0.69-0.7,1.04-1.54,1.04-2.53  c0-0.48-0.07-0.89-0.21-1.23c0.83-0.53,1.49-1.24,1.97-2.12c0.48-0.88,0.73-1.83,0.73-2.84c0-0.81-0.16-1.59-0.48-2.33  c-0.32-0.74-0.75-1.38-1.28-1.91c-0.53-0.53-1.17-0.96-1.91-1.28c-0.74-0.32-1.51-0.48-2.32-0.48c-1.09,0-2.1,0.27-3.02,0.81  s-1.65,1.27-2.18,2.18c-0.53,0.92-0.79,1.92-0.79,3.01v0.34c-1,0.57-1.66,1.4-1.98,2.49c-0.76,0.24-1.36,0.66-1.81,1.27  C5.09,18.13,4.86,18.83,4.86,19.61z M6.42,5.45c0,0.28,0.09,0.51,0.26,0.67l1.61,1.69c0.47,0.36,0.94,0.36,1.41,0  c0.19-0.19,0.28-0.42,0.28-0.7c0-0.27-0.09-0.5-0.28-0.7L8.05,4.76C7.84,4.57,7.6,4.47,7.35,4.47c-0.28,0-0.51,0.09-0.68,0.28  C6.5,4.94,6.42,5.17,6.42,5.45z M6.84,19.61c0-0.42,0.13-0.78,0.4-1.08c0.27-0.3,0.61-0.47,1.02-0.51l0.62-0.08  c0.13,0,0.2-0.08,0.2-0.23l0.09-0.56c0.07-0.58,0.31-1.06,0.73-1.44c0.42-0.39,0.91-0.58,1.48-0.58c0.58,0,1.09,0.19,1.51,0.58  c0.43,0.39,0.68,0.87,0.75,1.44l0.08,0.65c0.06,0.15,0.14,0.23,0.24,0.23h1.32c0.43,0,0.8,0.16,1.12,0.47  c0.32,0.31,0.47,0.68,0.47,1.12c0,0.45-0.16,0.83-0.47,1.15s-0.69,0.48-1.12,0.48H8.43c-0.45,0-0.83-0.16-1.13-0.48  C6.99,20.45,6.84,20.06,6.84,19.61z M11.26,13.22c0.07-1.09,0.49-2.01,1.27-2.76c0.77-0.74,1.71-1.12,2.79-1.12  c1.11,0,2.06,0.4,2.84,1.19c0.78,0.79,1.17,1.76,1.17,2.89c0,0.7-0.17,1.35-0.51,1.95c-0.34,0.6-0.8,1.08-1.38,1.45  c-0.59-0.49-1.27-0.73-2.03-0.73c-0.29-0.88-0.81-1.57-1.54-2.09c-0.73-0.52-1.56-0.78-2.48-0.78H11.26z M14.35,4.47  c0,0.27,0.1,0.51,0.29,0.7c0.19,0.19,0.42,0.29,0.69,0.29c0.28,0,0.51-0.1,0.7-0.29c0.19-0.19,0.29-0.42,0.29-0.7V2.13  c0-0.26-0.1-0.48-0.29-0.66c-0.19-0.18-0.42-0.27-0.7-0.27c-0.27,0-0.5,0.09-0.69,0.27c-0.19,0.18-0.29,0.4-0.29,0.66V4.47z   M20.67,19.7c0,0.27,0.09,0.5,0.27,0.7l1.64,1.62c0.42,0.42,0.89,0.42,1.41,0c0.18-0.17,0.26-0.39,0.26-0.68  c0-0.27-0.09-0.49-0.26-0.67L22.3,19c-0.18-0.17-0.41-0.25-0.68-0.25c-0.28,0-0.5,0.09-0.68,0.27C20.76,19.2,20.67,19.43,20.67,19.7  z M20.67,7.09c0,0.28,0.09,0.52,0.27,0.72c0.18,0.18,0.41,0.27,0.68,0.27c0.27,0,0.5-0.09,0.68-0.27l1.69-1.69  c0.18-0.17,0.26-0.39,0.26-0.67c0-0.28-0.1-0.51-0.29-0.69s-0.42-0.28-0.7-0.28c-0.26,0-0.49,0.1-0.68,0.29L20.94,6.4  C20.76,6.58,20.67,6.81,20.67,7.09z M23.25,13.43c0,0.27,0.09,0.49,0.28,0.67s0.43,0.26,0.72,0.26h1.69c0.27,0,0.5-0.09,0.69-0.27  s0.29-0.4,0.29-0.66c0-0.29-0.09-0.53-0.28-0.71s-0.42-0.28-0.69-0.28h-1.69c-0.29,0-0.53,0.09-0.72,0.28  C23.35,12.89,23.25,13.13,23.25,13.43z"/>
</svg><text x="10" y="145" font-style="normal" font-weight="bold" font-size="9px" font-family="monospace">3 min</text><text x="10" y="153" font-style="normal" font-weight="bold" font-size="9px" font-family="monospace">6 min</text><text x="10" y="161" font-style="normal" font-weight="bold" font-size="9px" font-family="monospace">9 min</text><text x="10" y="186" font-style="normal" font-weight="bold" font-size="9px" font-family="monospace">1 min</text><text x="10" y="194" font-style="normal" font-weight="bold" font-size="9px" font-family="monospace">7 min</text><text x="10" y="202" font-style="normal" font-weight="bold" font-size="9px" font-family="monospace">12 min</text></g>
</svg>